<?xml version="1.0" standalone="no"?> <!DOCTYPE svg PUBLIC "-//W3C//DTD SVG 1.0//EN" "http://www.w3.org/TR/2001/REC-SVG-20010904/DTD/svg10.dtd" > <svg xmlns="http://www.w3.org/2000/svg" width="100%" height="100%">
<defs >
<font horiz-adv-x="519" ><font-face
    font-family=""
    units-per-em="1000"
    panose-1="2 11 6 3 4 0 0 2 0 3"
    ascent="1076"
    descent="-408"
    alphabetic="0" />
<missing-glyph horiz-adv-x="516" d="M55 569H461V0H55V569ZM94 39H421V528H94V39ZM356 381Q356 363 352 350T340 326T318 308T283 292Q267 286 258 282T243 274T236 267T234 257Q234 252 234 245T236 231T238 218T241 206L202 200Q200 206 198 214T194 230T191
245T190 258Q190 270 193 278T204 293T226 306T266 320Q280 325 289 330T303 342T310 355T312 373Q312 390 305 403T283 426T244 441T186 446Q183 446 182 446T178 446T173 446T168 445L173 483Q178 484 182 484T192 485T202 486T212 486Q246 486 273 479T318 457T346
424T356 381ZM264 88H205V139H264V88Z" />
<glyph unicode=" " glyph-name="space" horiz-adv-x="194" />
<glyph unicode="!" glyph-name="exclam" horiz-adv-x="277" d="M190 696L183 199H110L103 696H190ZM197 0H96V88H197V0Z" />
<glyph unicode="&quot;" glyph-name="quotedbl" horiz-adv-x="431" d="M153 423L81 419V679H153V423ZM350 423L278 419V679H350V423Z" />
<glyph unicode="#" glyph-name="numbersign" horiz-adv-x="554" d="M308 297L337 404H242L213 297H308ZM259 121L291 237H196L164 121H97L129 237H53L58 297H146L175 404H93L98 464H192L224 580H291L259 464H354L386 580H453L421 464H500L495 404H404L375 297H460L455
237H358L326 121H259Z" />
<glyph unicode="$" glyph-name="dollar" horiz-adv-x="428" d="M250 -4L251 -128H183L184 -7Q161 -6 141 -3T103 5T70 18T39 33L58 96Q77 87 97 79T137 66T177 57T212 54Q236 54 254 59T284 72T303 92T309 116Q309 130 305 140T291 160T261 178T208 198Q161 212
132 226T87 255T65 290T59 337Q59 361 67 382T92 422T132 452T188 470L186 617H255L254 474Q274 473 291 471T325 464T355 454T382 441L357 379Q346 385 332 390T301 399T267 405T233 408Q208 408 190 404T160 391T143 371T137 345Q137 330 141 320T157 301T188
284T243 264Q288 250 316 236T360 206T382 172T388 130Q388 107 380 86T354 46T311 15T250 -4Z" />
<glyph unicode="%" glyph-name="percent" horiz-adv-x="824" d="M648 520L256 -55H178L570 520H648ZM302 346Q302 315 293 290T266 245T223 216T168 206Q136 206 113 215T75 242T53 284T46 338Q46 368 55 393T83 436T126 465T182 475Q212 475 234 467T272 443T294
403T302 346ZM240 343Q240 362 236 377T225 403T205 420T177 426Q161 426 148 420T126 403T113 376T108 341Q108 320 112 304T124 276T144 260T173 254Q188 254 200 259T221 275T235 303T240 343ZM777 134Q777 103 768 77T741 32T698 3T643 -7Q611 -7 588 2T550
29T528 71T521 125Q521 155 530 180T558 224T601 253T657 263Q687 263 709 255T747 230T769 190T777 134ZM715 130Q715 149 711 164T700 191T680 207T652 213Q636 213 623 207T602 190T589 164T584 128Q584 106 588 90T599 64T619 48T648 42Q663 42 675 47T696
63T710 91T715 130Z" />
<glyph unicode="&amp;" glyph-name="ampersand" horiz-adv-x="686" d="M621 328Q621 299 611 268T580 203T530 137T462 71Q491 26 512 -1T548 -44T577 -65T606 -71Q615 -71 626 -70T648 -66T672 -60T694 -52L712 -107Q702 -113 688 -118T657 -129T622 -137T588
-140Q563 -140 543 -133T501 -107T455 -56T395 29Q381 21 362 15T322 3T278 -4T234 -7Q186 -7 149 5T88 40T51 92T39 156Q39 181 46 201T70 245T116 296T195 365Q179 394 168 419T151 467T143 508T140 546Q140 577 150 605T181 655T233 689T306 702Q338 702 363
694T407 671T434 636T446 591Q446 559 439 535T414 488T369 437T287 361Q303 332 320 303T355 243T391 183T429 124Q457 150 479 174T517 223T541 270T549 316Q549 328 546 337T533 354T508 369T467 386L497 440Q531 432 555 421T593 395T614 365T621 328ZM375
569Q375 587 370 600T354 623T329 637T297 642Q277 642 262 636T236 619T220 591T215 553Q215 540 217 525T223 493T236 455T256 411Q292 443 315 467T351 510T369 542T375 569ZM363 81Q345 110 327 138T292 194T259 252T226 310Q193 282 173 263T141 228T124 199T119
170Q119 145 128 124T155 88T198 64T254 56Q267 56 282 58T312 63T340 71T363 81Z" />
<glyph unicode="&apos;" glyph-name="quotesingle" horiz-adv-x="234" d="M153 423L81 419V679H153V423Z" />
<glyph unicode="(" glyph-name="parenleft" horiz-adv-x="314" d="M291 -191L276 -246Q225 -236 188 -211T122 -134T79 11T63 244Q63 384 78 476T121 621T186 699T276 734L291 681Q252 663 226 640T180 571T151 446T140 245Q140 122 150 43T180 -81T225 -150T291 -191Z" />
<glyph unicode=")" glyph-name="parenright" horiz-adv-x="313" d="M38 735Q88 725 125 701T191 623T234 478T250 245Q250 105 235 13T192 -132T127 -210T38 -245L22 -191Q61 -174 87 -151T133 -82T162 42T173 244Q173 367 163 446T133 571T88 640T22 681L38 735Z" />
<glyph unicode="*" glyph-name="asterisk" horiz-adv-x="495" d="M459 509L294 483L385 336L323 304L242 455L125 330L72 374L196 495L42 559L72 620L218 548L236 716L308 708L284 540L445 573L459 509Z" />
<glyph unicode="+" glyph-name="plus" horiz-adv-x="529" d="M464 262L461 202H295V44H226V202H64L70 262H226V426H295V262H464Z" />
<glyph unicode="," glyph-name="comma" horiz-adv-x="266" d="M197 -14Q197 -43 188 -66T159 -108T111 -143T41 -175L17 -126Q47 -112 67 -100T98 -77T113 -54T118 -29Q118 -20 116 -6T110 25T102 59T92 91L157 103Q165 93 172 80T185 50T194 18T197 -14Z" />
<glyph unicode="-" glyph-name="hyphen" horiz-adv-x="354" d="M317 279L314 219H36L40 279H317Z" />
<glyph unicode="." glyph-name="period" horiz-adv-x="262" d="M184 0H79V90H184V0Z" />
<glyph unicode="/" glyph-name="slash" horiz-adv-x="377" d="M364 679L89 0H13L288 679H364Z" />
<glyph unicode="0" glyph-name="zero" horiz-adv-x="536" d="M495 244Q495 190 480 144T434 64T359 12T258 -7Q202 -7 161 9T94 56T54 131T41 231Q41 283 57 327T104 405T179 457T278 475Q333 475 373 461T441 417T481 345T495 244ZM412 240Q412 284 403 317T377
371T334 404T273 415Q238 415 210 403T162 366T133 310T123 237Q123 192 131 158T156 100T201 65T267 53Q300 53 326 64T372 99T401 158T412 240Z" />
<glyph unicode="1" glyph-name="one" horiz-adv-x="315" d="M237 0H157V395L28 399L30 454L237 462V0Z" />
<glyph unicode="2" glyph-name="two" horiz-adv-x="462" d="M227 407Q210 407 196 405T165 396T130 379T88 351L54 402Q79 422 101 435T146 458T191 471T242 475Q280 475 310 465T360 435T390 391T400 336Q400 311 393 290T370 246T326 199T258 141Q254 138 240
127T207 101T174 75T155 60H423L416 0H43L36 47Q75 76 99 94T149 132T193 166Q232 196 256 218T295 259T315 293T321 326Q321 344 315 359T296 385T266 401T227 407Z" />
<glyph unicode="3" glyph-name="three" horiz-adv-x="448" d="M211 406Q194 406 180 404T149 395T115 377T73 349L39 400Q64 420 86 434T131 458T176 471T226 475Q264 475 293 465T343 436T374 391T385 335Q385 317 380 299T365 262T337 223T295 178Q325 166 346
151T379 119T397 83T403 45Q403 3 387 -32T341 -92T269 -130T175 -143Q151 -143 129 -141T85 -135T46 -125T12 -112L29 -54Q47 -61 66 -66T103 -74T141 -78T179 -80Q212 -80 238 -72T283 -49T311 -13T321 35Q321 61 306 81T262 114T198 133T118 140V201Q133 201
148 201T180 200T210 198T235 195Q256 215 269 232T291 265T302 294T306 323Q306 341 299 356T280 382T250 400T211 406Z" />
<glyph unicode="4" glyph-name="four" horiz-adv-x="503" d="M469 108L465 49H386V-142L306 -146V49H37L26 105L309 469L386 463V108H469ZM306 108V372L101 108H306Z" />
<glyph unicode="5" glyph-name="five" horiz-adv-x="451" d="M181 -143Q157 -143 137 -142T100 -137T66 -128T32 -116L48 -57Q67 -64 84 -68T118 -75T152 -79T190 -80Q223 -80 248 -71T289 -44T313 -5T321 42Q321 47 321 51T320 59T318 66T316 73Q310 91 297 105T260
128T203 142T123 147Q117 147 110 147T95 147T81 146T73 145V464H396L389 396H137V214H163Q223 214 268 204T343 173T388 123T403 51Q403 11 388 -24T345 -86T275 -128T181 -143Z" />
<glyph unicode="6" glyph-name="six" horiz-adv-x="485" d="M451 579L434 520Q418 525 402 529T368 537T333 542T299 544Q260 544 231 534T182 501T149 444T129 358Q214 358 273 347T368 315T422 260T439 181Q439 142 427 108T389 48T327 8T243 -7Q193 -7 156
8T94 54T57 134T44 251Q44 342 61 409T111 520T192 585T306 607Q326 607 346 605T386 600T422 591T451 579ZM363 177Q363 211 346 234T296 270T222 289T125 295Q125 294 125 286T125 270T124 253T124 232Q125 184 133 151T158 96T196 65T247 55Q276 55 297 63T333
87T355 125T363 177Z" />
<glyph unicode="7" glyph-name="seven" horiz-adv-x="450" d="M421 412L159 -145L85 -140L337 396H37L43 464H416L421 412Z" />
<glyph unicode="8" glyph-name="eight" horiz-adv-x="490" d="M85 466Q85 498 97 524T133 569T188 597T260 607Q298 607 329 598T382 570T416 526T428 469Q428 451 423 432T407 393T379 351T337 301Q369 278 389 259T421 224T437 192T442 159Q442 122 428 92T387
39T323 5T241 -7Q194 -7 158 3T98 32T60 81T47 148Q47 167 52 185T69 224T102 272T157 336Q139 350 126 364T103 395T90 428T85 466ZM358 464Q358 483 351 499T330 526T298 544T256 550Q233 550 216 545T185 529T166 503T159 467Q159 455 162 445T173 423T191 401T220
378Q228 373 235 368T258 353T276 340T288 332Q307 354 321 373T343 409T354 438T358 464ZM122 152Q122 129 131 110T157 79T197 59T248 52Q274 52 295 59T330 79T353 110T361 150Q361 166 356 179T341 203T317 226T279 252Q271 258 262 263T251 270T231 284T204
301Q180 274 165 253T141 215T127 183T122 152Z" />
<glyph unicode="9" glyph-name="nine" horiz-adv-x="484" d="M121 292Q121 258 138 235T188 200T262 182T360 177V236Q360 283 352 316T327 371T289 402T238 412Q209 412 188 404T151 381T129 343T121 292ZM33 -111L50 -52Q66 -57 82 -61T116 -69T151 -74T186
-76Q225 -76 254 -65T303 -31T335 28T355 114Q270 114 211 124T116 155T62 208T45 287Q45 325 58 359T96 419T158 460T242 475Q292 475 329 460T390 414T427 334T440 217Q440 126 423 59T373 -52T292 -118T179 -140Q159 -140 139 -138T99 -132T62 -123T33 -111Z"
/>
<glyph unicode=":" glyph-name="colon" horiz-adv-x="262" d="M184 318H79V408H184V318ZM184 52H79V142H184V52Z" />
<glyph unicode=";" glyph-name="semicolon" horiz-adv-x="265" d="M181 318H76V408H181V318ZM197 -14Q197 -43 188 -66T159 -108T111 -143T41 -175L17 -126Q47 -112 67 -100T98 -77T113 -54T118 -29Q118 -20 116 -6T110 25T102 59T92 91L157 103Q165 93 172 80T185
50T194 18T197 -14Z" />
<glyph unicode="&lt;" glyph-name="less" horiz-adv-x="493" d="M437 441L431 368L144 229L430 89L423 18L51 199L57 257L437 441Z" />
<glyph unicode="=" glyph-name="equal" horiz-adv-x="493" d="M427 340L422 280H67L72 340H427ZM427 184L422 124H67L72 184H427Z" />
<glyph unicode="&gt;" glyph-name="greater" horiz-adv-x="493" d="M55 17L62 90L349 229L62 369L69 441L442 260L435 201L55 17Z" />
<glyph unicode="?" glyph-name="question" horiz-adv-x="403" d="M374 511Q374 479 368 456T346 414T307 382T245 355Q217 346 201 339T177 325T165 311T162 293Q162 283 163 271T165 248T169 225T173 203L107 194Q103 205 99 218T92 246T88 274T86 297Q86 319
90 333T108 358T146 380T215 406Q239 414 255 423T280 442T292 466T296 495Q296 526 284 549T246 589T177 614T76 623Q72 623 69 623T62 623T54 623T45 622L53 689Q63 690 71 690T87 691T104 692T122 693Q183 693 230 680T309 643T357 586T374 511ZM212 0H110V88H212V0Z"
/>
<glyph unicode="@" glyph-name="at" horiz-adv-x="897" d="M517 86Q490 60 473 44T439 16T408 -1T377 -7Q355 -7 338 0T307 25T286 69T279 135Q279 202 292 256T332 349T394 408T476 429Q491 429 508 428T545 423T582 416T616 407L591 148Q590 137 589 123T587
95T586 70T585 51Q628 58 665 84T730 150T771 238T786 338Q786 400 767 448T710 528T617 576T489 592Q407 592 338 563T219 478T142 346T115 173Q115 97 128 41T167 -51T234 -106T332 -125Q351 -125 371 -123T413 -118T457 -109T500 -98L513 -148Q493 -157 470
-164T422 -175T372 -182T322 -185Q257 -185 207 -166T121 -106T66 2T47 163Q47 279 82 371T180 525T324 618T498 650Q587 650 653 629T763 567T828 470T849 343Q849 277 827 214T764 100T670 22T555 -7Q542 -7 534 -4T522 5T516 21T514 43Q514 47 514 52T514 62T515
74T517 86ZM352 141Q352 119 355 103T365 75T381 59T403 54Q411 54 420 58T443 73T473 100T519 145L541 359Q533 361 524 362T505 365T487 367T470 368Q440 368 418 351T381 303T359 231T352 141Z" />
<glyph unicode="A" glyph-name="A" horiz-adv-x="608" d="M294 540L195 268H408L316 540Q313 548 312 555T309 570T307 583T306 594Q306 589 305 583T303 569T299 555T294 540ZM591 0H500L430 203H173L95 0H15L272 679H350L591 0Z" />
<glyph unicode="B" glyph-name="B" horiz-adv-x="559" d="M512 207Q512 160 496 122T449 57T370 15T262 0H81V679H261Q313 679 351 668T412 635T447 585T458 520Q458 501 454 483T442 446T422 407T390 362Q423 353 446 338T484 302T505 258T512 207ZM378 508Q378
533 371 552T347 586T306 607T244 614H164V377H327Q341 399 351 416T367 449T375 479T378 508ZM428 198Q428 225 420 246T395 281T352 304T292 312H164V65H271Q313 65 343 75T391 103T419 145T428 198Z" />
<glyph unicode="C" glyph-name="C" horiz-adv-x="588" d="M445 455L444 601Q430 605 417 608T392 613T366 616T337 617Q289 617 251 598T186 542T147 452T133 331Q133 256 148 205T190 123T253 79T335 65Q361 65 386 69T436 82T484 102T531 130L555 71Q530 52
505 38T450 13T389 -2T322 -7Q254 -7 203 12T117 72T65 174T47 323Q47 405 66 472T123 587T215 660T339 686Q367 686 392 684T441 678T486 667T526 652L515 459L445 455Z" />
<glyph unicode="D" glyph-name="D" horiz-adv-x="641" d="M595 350Q595 272 576 208T518 98T417 26T275 0H81V679H294Q364 679 418 662T512 607T573 506T595 350ZM278 614H164V65H275Q336 65 380 84T453 141T495 230T509 349Q509 413 496 462T454 545T382 596T278 614Z" />
<glyph unicode="E" glyph-name="E" horiz-adv-x="537" d="M486 0H81V679H485L480 614H164V384H441V319H164V65H481L486 0Z" />
<glyph unicode="F" glyph-name="F" horiz-adv-x="499" d="M477 679L471 614H164V371H442L437 306H164V0H81V679H477Z" />
<glyph unicode="G" glyph-name="G" horiz-adv-x="631" d="M563 62Q539 47 512 35T455 13T392 -2T325 -7Q257 -7 205 12T118 71T65 174T47 323Q47 405 66 472T123 587T214 660T338 686Q372 686 399 684T450 676T496 663T542 644L518 579Q497 589 476 596T432 607T386
614T337 617Q289 617 251 598T186 542T146 452T132 332Q132 258 147 206T189 122T253 76T339 62Q358 62 376 64T411 70T446 82T482 98V258H332L336 323H563V62Z" />
<glyph unicode="H" glyph-name="H" horiz-adv-x="693" d="M611 0H528V319H164V0H81V679H164V384H528V679H611V0Z" />
<glyph unicode="I" glyph-name="I" horiz-adv-x="386" d="M335 679V621L233 617V61L336 57V0H50V57L150 61V617L51 621V679H335Z" />
<glyph unicode="J" glyph-name="J" horiz-adv-x="325" d="M-36 -144L-20 -82Q-10 -85 2 -87T26 -92T50 -95T71 -96Q93 -96 108 -91T132 -74T146 -46T151 -3V617L41 621V679H305V621L234 617V12Q234 -31 224 -64T194 -119T142 -152T69 -164Q56 -164 43 -163T15
-159T-12 -152T-36 -144Z" />
<glyph unicode="K" glyph-name="K" horiz-adv-x="581" d="M571 0H469L243 338L164 254V0H81V679H164V345L462 679H550L304 398L571 0Z" />
<glyph unicode="L" glyph-name="L" horiz-adv-x="505" d="M476 0H81V679H164V65H470L476 0Z" />
<glyph unicode="M" glyph-name="M" horiz-adv-x="841" d="M764 0H682L680 569Q679 562 678 555T675 542T671 529T665 516L444 10H384L176 498Q173 506 171 512T167 524T164 536T162 551L154 0H81L92 679H185L423 120L667 679H758L764 0Z" />
<glyph unicode="N" glyph-name="N" horiz-adv-x="698" d="M618 0H544L181 507Q178 511 175 517T168 529T162 540T158 551V0H81V679H157L512 177Q517 169 522 162T530 148T537 135T541 123V679H618V0Z" />
<glyph unicode="O" glyph-name="O" horiz-adv-x="689" d="M639 351Q639 277 620 212T563 98T466 20T334 -8Q264 -8 212 11T123 70T68 174T49 329Q49 408 70 474T131 587T227 660T354 686Q423 686 476 667T565 608T620 504T639 351ZM551 346Q551 409 540 459T506
544T444 599T350 619Q300 619 260 599T193 542T151 452T136 336Q136 267 147 216T183 130T246 78T339 60Q388 60 427 79T494 135T536 225T551 346Z" />
<glyph unicode="P" glyph-name="P" horiz-adv-x="521" d="M399 469Q399 500 392 526T368 572T326 603T262 614H164V298Q169 297 179 296T202 293T227 292T251 291Q290 291 319 305T365 343T391 400T399 469ZM481 477Q481 423 466 377T420 297T347 245T248 226Q237
226 225 226T202 228T180 230T164 233V0H81V679H276Q329 679 368 665T432 623T469 559T481 477Z" />
<glyph unicode="Q" glyph-name="Q" horiz-adv-x="689" d="M639 351Q639 297 629 247T597 153T544 77T471 22Q481 -18 490 -42T511 -79T538 -98T576 -104Q585 -104 596 -103T619 -100T645 -95T673 -89L684 -153Q672 -158 657 -162T625 -169T593 -173T564 -175Q527
-175 503 -168T460 -142T427 -90T398 -2Q391 -3 383 -4T367 -6T351 -7T334 -8Q264 -8 212 11T123 70T68 174T49 329Q49 408 70 474T131 587T227 660T354 686Q423 686 476 667T565 608T620 504T639 351ZM551 346Q551 409 540 459T506 544T444 599T350 619Q300 619
260 599T193 542T151 452T136 336Q136 267 147 216T183 130T246 78T339 60Q388 60 427 79T494 135T536 225T551 346Z" />
<glyph unicode="R" glyph-name="R" horiz-adv-x="560" d="M405 494Q405 525 395 548T366 585T320 607T257 614H164V333H321Q344 357 360 378T386 418T400 456T405 494ZM530 0H435L289 268H164V0H81V679H271Q327 679 368 668T435 633T475 577T488 499Q488 475 482
452T462 403T425 351T368 291L530 0Z" />
<glyph unicode="S" glyph-name="S" horiz-adv-x="527" d="M472 184Q472 142 456 107T409 47T331 7T226 -7Q197 -7 172 -5T123 3T77 16T34 35L59 105Q78 96 100 89T146 77T194 68T242 65Q277 65 304 72T350 94T377 127T386 169Q386 194 380 211T359 242T315 271T238
302Q188 320 155 338T100 378T70 428T60 496Q60 537 73 571T114 631T184 671T283 686Q309 686 333 684T379 677T420 665T457 648L434 580Q414 588 394 594T355 605T317 612T283 614Q245 614 219 607T176 587T153 554T145 508Q145 484 150 467T170 436T210 408T278
379Q337 358 375 338T434 295T463 246T472 184Z" />
<glyph unicode="T" glyph-name="T" horiz-adv-x="551" d="M542 679L537 614H319V0H236V614H8L13 679H542Z" />
<glyph unicode="U" glyph-name="U" horiz-adv-x="674" d="M598 270Q598 208 582 157T533 70T449 14T330 -6Q260 -6 211 10T132 60T89 141T75 257V679H158V262Q158 210 167 173T197 111T252 74T335 62Q386 62 421 75T478 115T509 179T519 271V679H598V270Z" />
<glyph unicode="V" glyph-name="V" horiz-adv-x="576" d="M294 143L491 679H573L314 0H239L2 679H95L274 143Q276 137 278 130T281 116T282 102T283 90Q283 95 283 101T285 114T289 128T294 143Z" />
<glyph unicode="W" glyph-name="W" horiz-adv-x="854" d="M416 484L262 0H178L15 679H103L223 149Q225 142 226 135T227 121T228 110T228 98Q228 103 228 109T230 121T234 135T238 149L389 626H474L615 149Q617 143 618 136T621 122T623 109T624 98Q624 103 624
109T626 121T628 135T632 149L759 679H839L668 0H583L433 484Q431 491 430 498T427 512T426 525T425 536Q425 531 425 525T423 513T420 499T416 484Z" />
<glyph unicode="X" glyph-name="X" horiz-adv-x="567" d="M549 679L331 343L542 0H447L279 274L107 0H18L232 335L25 679H120L284 405L462 679H549Z" />
<glyph unicode="Y" glyph-name="Y" horiz-adv-x="538" d="M536 679L300 299V0H217V293L2 679H96L263 377L452 679H536Z" />
<glyph unicode="Z" glyph-name="Z" horiz-adv-x="512" d="M485 679L489 627L121 65H470L465 0H32L24 57L383 614H48L51 679H485Z" />
<glyph unicode="[" glyph-name="bracketleft" horiz-adv-x="318" d="M292 714L288 654H163V-167H289L285 -227H83V714H292Z" />
<glyph unicode="\" glyph-name="backslash" horiz-adv-x="387" d="M367 0H289L13 680H90L367 0Z" />
<glyph unicode="]" glyph-name="bracketright" horiz-adv-x="316" d="M25 -227L29 -167H154V654H28L32 714H234V-227H25Z" />
<glyph unicode="^" glyph-name="asciicircum" horiz-adv-x="441" d="M400 404H318L235 625Q231 635 228 645T223 663T220 678T219 686Q217 678 215 672T211 659T206 644T199 625L115 404H41L192 773H261L400 404Z" />
<glyph unicode="_" glyph-name="underscore" horiz-adv-x="332" d="M308 60L304 0H20L25 60H308Z" />
<glyph unicode="`" glyph-name="grave" horiz-adv-x="299" d="M244 570L189 554L55 728L124 743L244 570Z" />
<glyph unicode="a" glyph-name="a" horiz-adv-x="497" d="M437 58Q443 58 448 58T459 59T469 61T481 63L487 7Q479 4 470 2T449 -3T427 -6T404 -7Q383 -7 368 -3T344 10T329 31T322 59Q299 38 281 26T245 6T210 -4T168 -7Q142 -7 120 0T81 23T54 63T44 118Q44
145 54 165T94 201T178 229T322 246V337Q322 356 318 370T305 393T283 406T253 411Q234 411 214 407T175 396T136 379T100 356L65 407Q88 423 110 435T158 457T211 470T272 475Q303 475 327 467T367 442T391 401T400 344V96Q400 84 401 77T407 66T418 60T437 58ZM320
122V195Q263 191 226 186T165 172T132 152T121 124Q121 108 125 96T138 74T160 60T192 55Q206 55 221 59T252 71T286 92T320 122Z" />
<glyph unicode="b" glyph-name="b" horiz-adv-x="525" d="M159 715V412Q175 427 191 438T226 458T265 470T307 475Q349 475 381 462T436 420T469 350T481 250Q481 193 466 146T422 64T350 12T252 -7Q229 -7 207 -5T164 1T121 13T79 30V709L159 715ZM399 242Q399
280 392 310T371 363T335 397T284 409Q268 409 252 405T219 392T188 372T159 346V70Q171 65 182 61T204 55T228 52T255 51Q290 51 316 63T361 101T389 161T399 242Z" />
<glyph unicode="c" glyph-name="c" horiz-adv-x="422" d="M380 457L362 395Q351 399 340 401T317 405T295 408T275 409Q236 409 208 398T162 363T134 304T125 221Q125 180 132 150T156 100T196 71T256 61Q271 61 286 63T317 69T346 80T375 94L399 35Q382 25 364
17T325 4T283 -4T237 -7Q190 -7 155 5T95 44T58 113T45 215Q45 278 61 327T108 409T180 458T272 475Q288 475 302 474T330 471T355 466T380 457Z" />
<glyph unicode="d" glyph-name="d" horiz-adv-x="523" d="M363 111V394Q354 399 343 402T320 408T295 412T270 414Q236 414 210 403T165 368T137 308T127 224Q127 179 134 148T155 96T190 67T241 57Q259 57 277 62T311 75T340 92T363 111ZM443 2L374 -3Q372 1
370 7T367 22T365 39T364 57Q351 43 336 32T302 12T262 -2T218 -7Q165 -7 131 12T78 63T52 135T45 220Q45 282 61 330T106 410T177 458T267 475Q282 475 295 474T321 470T343 465T363 456V709L443 714V2Z" />
<glyph unicode="e" glyph-name="e" horiz-adv-x="479" d="M434 53Q414 39 393 28T349 9T299 -3T244 -7Q199 -7 163 5T100 43T59 110T45 209Q45 273 60 323T103 407T171 458T263 475Q301 475 332 462T384 426T417 370T428 300Q428 289 428 282T428 265T427 245T425
223H124Q124 179 132 148T158 96T201 67T263 57Q281 57 299 60T335 70T372 86T410 107L434 53ZM355 283V294Q355 322 348 344T327 382T294 406T251 414Q224 414 203 405T166 379T141 338T128 283H355Z" />
<glyph unicode="f" glyph-name="f" horiz-adv-x="293" d="M313 702L299 645Q293 646 285 647T266 650T247 651T231 652Q213 652 201 648T181 633T170 608T167 571V464H269L264 404H167V0H87V403L22 408L27 460L87 464V565Q87 603 95 631T120 677T162 705T222 714Q233
714 245 713T271 711T295 707T313 702Z" />
<glyph unicode="g" glyph-name="g" horiz-adv-x="509" d="M345 317Q345 339 339 356T320 387T288 408T244 415Q216 415 196 408T162 387T141 353T134 305Q134 279 141 261T161 231T194 214T239 208Q263 208 282 214T316 234T337 268T345 317ZM506 527L499 464Q490
465 482 465T467 466T454 467T442 468Q432 468 425 466T413 458T402 443T390 416Q398 408 404 397T415 373T422 346T425 319Q425 280 412 249T374 196T313 163T231 151Q225 151 221 151T212 151T204 151T197 152Q193 147 191 140T186 124T183 109T182 95Q182 85
183 79T188 69T196 64T207 62H344Q378 62 402 55T442 35T465 3T473 -43Q473 -76 455 -106T401 -161T317 -200T209 -214Q165 -214 132 -208T75 -188T41 -155T29 -106Q29 -84 36 -66T55 -33T85 -4T126 27Q122 30 120 35T115 45T112 56T111 67Q111 77 113 88T119 111T129
136T144 162Q123 169 107 180T79 209T61 249T55 300Q55 342 69 375T109 430T170 463T248 475Q265 475 280 473T309 467T332 459T350 450Q359 477 367 494T385 521T406 535T435 539Q443 539 452 538T471 536T490 532T506 527ZM399 -49Q399 -38 396 -29T385 -13T364
-2T331 2H167Q150 -10 138 -21T119 -44T108 -65T105 -87Q105 -104 112 -116T133 -136T170 -148T223 -152Q263 -152 296 -144T352 -120T387 -87T399 -49Z" />
<glyph unicode="h" glyph-name="h" horiz-adv-x="529" d="M452 0H372V336Q372 352 369 365T359 387T339 402T308 408Q293 408 275 403T238 388T198 362T159 328V0H79V708L159 714V392Q183 415 206 430T251 456T294 470T337 475Q369 475 391 467T426 443T446 404T452
348V0Z" />
<glyph unicode="i" glyph-name="i" horiz-adv-x="238" d="M163 571H74V648H163V571ZM159 0H79V465L159 470V0Z" />
<glyph unicode="j" glyph-name="j" horiz-adv-x="239" d="M163 571H74V648H163V571ZM158 -38Q158 -83 149 -113T121 -163T73 -192T-1 -208L-13 -147Q16 -142 33 -136T60 -120T74 -95T78 -55V465L158 470V-38Z" />
<glyph unicode="k" glyph-name="k" horiz-adv-x="473" d="M159 714V252L352 464H444L247 248L469 1L369 -2L159 230V0H79V708L159 714Z" />
<glyph unicode="l" glyph-name="l" horiz-adv-x="256" d="M157 714V93Q157 82 158 76T162 65T173 60T191 58Q197 58 202 58T213 58T223 60T235 62L240 6Q233 3 223 1T201 -3T177 -6T154 -7Q134 -7 120 -3T96 11T82 36T77 73V708L157 714Z" />
<glyph unicode="m" glyph-name="m" horiz-adv-x="793" d="M637 0V336Q637 352 634 365T624 387T605 402T574 408Q560 408 544 404T511 390T477 367T440 335V0H360V338Q360 355 358 367T349 389T331 403T301 408Q287 408 271 403T236 388T198 363T159 329V0H79V465L148
472Q150 467 152 459T155 440T157 417T158 391Q182 414 204 430T248 456T289 470T331 475Q355 475 373 470T405 456T426 431T437 396Q458 416 479 431T520 455T560 470T602 475Q635 475 657 467T692 444T711 405T717 350V0H637Z" />
<glyph unicode="n" glyph-name="n" horiz-adv-x="529" d="M452 0H372V336Q372 352 369 365T359 387T339 402T309 408Q294 408 276 403T239 388T199 362T159 328V0H79V465L147 471Q149 466 151 458T154 439T157 416T158 391Q182 413 205 429T250 455T294 470T337
475Q369 475 391 467T426 443T446 404T452 348V0Z" />
<glyph unicode="o" glyph-name="o" horiz-adv-x="515" d="M470 244Q470 188 456 142T413 63T344 11T251 -7Q199 -7 161 7T96 49T57 121T44 223Q44 279 59 325T104 405T174 457T267 475Q317 475 355 462T418 420T457 348T470 244ZM387 238Q387 279 380 311T358
367T318 402T259 414Q228 414 204 402T162 367T135 309T126 230Q126 181 135 147T162 93T203 63T257 54Q289 54 313 66T354 103T379 161T387 238Z" />
<glyph unicode="p" glyph-name="p" horiz-adv-x="525" d="M398 242Q398 280 392 310T371 363T335 397T284 409Q266 409 248 404T214 391T184 371T159 348V77Q169 72 181 68T206 59T232 53T259 51Q293 51 318 63T362 101T389 161T398 242ZM481 248Q481 194 468
148T426 67T356 13T256 -7Q242 -7 229 -6T203 -2T179 5T159 14V-195L79 -199V465L145 472Q147 467 149 460T152 445T155 428T156 410Q171 425 188 437T224 457T265 470T307 475Q349 475 381 461T436 419T469 349T481 248Z" />
<glyph unicode="q" glyph-name="q" horiz-adv-x="522" d="M443 -195L362 -199V54Q349 41 333 30T299 10T259 -2T216 -7Q162 -7 128 12T75 65T51 136T45 220Q45 282 61 330T106 410T176 458T267 475Q282 475 296 474T324 471T349 467T370 461L443 470V-195ZM363
111V399Q354 402 343 404T320 409T295 413T270 414Q236 414 210 403T165 368T137 308T127 224Q127 179 134 148T155 96T190 67T241 57Q256 57 272 61T304 72T335 89T363 111Z" />
<glyph unicode="r" glyph-name="r" horiz-adv-x="335" d="M327 469L320 403Q315 403 311 403T303 404T298 404T291 404Q271 404 259 400T233 383T204 344T159 268V0H79V465L142 472Q145 467 147 455T150 425T153 388T154 347Q173 387 188 412T218 450T246 469T279
475Q286 475 293 475T306 473T318 471T327 469Z" />
<glyph unicode="s" glyph-name="s" horiz-adv-x="427" d="M382 127Q382 99 372 75T339 33T282 4T199 -7Q177 -7 156 -5T114 3T75 15T38 33L58 96Q77 86 96 79T135 66T173 58T209 55Q234 55 252 59T282 72T298 92T304 116Q304 130 301 140T287 160T257 179T205
199Q160 213 132 227T88 258T66 293T59 339Q59 368 70 393T104 436T159 465T233 475Q255 475 274 473T312 467T346 457T376 442L354 381Q343 387 328 391T296 400T262 406T227 408Q202 408 185 403T157 390T143 370T138 345Q138 329 142 319T156 300T187 283T241
263Q285 249 312 235T355 204T376 170T382 127Z" />
<glyph unicode="t" glyph-name="t" horiz-adv-x="351" d="M333 25Q319 17 304 11T272 1T237 -5T199 -7Q170 -7 149 -1T115 19T94 54T87 105V404L24 408L29 461L88 464L99 614L167 621V464H321L316 404H167V112Q167 97 170 87T179 71T194 62T218 59Q229 59 240
60T264 64T289 71T316 82L333 25Z" />
<glyph unicode="u" glyph-name="u" horiz-adv-x="526" d="M447 0L379 -4Q377 1 375 9T372 26T370 47T369 69Q346 48 324 33T280 10T237 -3T195 -7Q162 -7 139 2T102 28T82 69T76 125V464L156 468V130Q156 114 159 101T171 79T193 64T224 59Q239 59 256 63T291
75T329 98T367 131V464L447 468V0Z" />
<glyph unicode="v" glyph-name="v" horiz-adv-x="458" d="M95 464L220 126Q222 119 223 113T226 100T227 89T228 79Q228 84 228 89T230 101T233 113T238 126L371 464H447L257 0H188L11 464H95Z" />
<glyph unicode="w" glyph-name="w" horiz-adv-x="710" d="M339 337L223 0H157L14 464H93L192 129Q194 122 195 116T198 103T199 92T200 82Q200 87 200 92T202 104T206 116T210 129L319 464L386 468L498 129Q501 122 502 116T505 103T506 92T507 82Q507 87 507
92T509 104T512 116T516 129L624 464H695L539 0H470L356 337Q354 343 353 349T350 362T349 373T348 384Q348 379 348 374T346 362T343 350T339 337Z" />
<glyph unicode="x" glyph-name="x" horiz-adv-x="458" d="M427 464L276 235L428 0H337L220 181L109 0H28L179 233L31 464H122L233 287L346 464H427Z" />
<glyph unicode="y" glyph-name="y" horiz-adv-x="458" d="M95 464L219 127Q222 120 223 114T225 101T226 90T227 79Q227 84 227 89T229 101T232 113T237 127L370 464H446L211 -106Q201 -132 188 -149T155 -178T108 -196T41 -204L30 -144Q60 -141 79 -137T110 -126T130
-109T145 -84L184 7L13 464H95Z" />
<glyph unicode="z" glyph-name="z" horiz-adv-x="436" d="M386 464L391 409L146 60H393L386 0H49L44 54L294 404H63L70 464H386Z" />
<glyph unicode="{" glyph-name="braceleft" horiz-adv-x="344" d="M314 721L329 665Q288 655 264 645T226 622T207 591T201 543Q201 526 203 506T209 454T216 403T218 368Q218 347 214 330T201 296T175 267T136 242Q157 234 172 221T198 193T212 160T217 122Q217
101 215 79T209 26T203 -25T201 -61Q201 -88 206 -105T226 -135T264 -157T330 -177L312 -234Q260 -226 226 -214T170 -183T139 -138T129 -73Q129 -54 131 -32T137 23T143 76T145 113Q145 136 140 151T122 176T88 194T33 206L37 260Q69 266 90 274T123 295T140 324T146
362Q146 379 144 397T138 448T131 502T128 546Q128 587 139 616T172 666T230 700T314 721Z" />
<glyph unicode="|" glyph-name="bar" horiz-adv-x="303" d="M184 -199H118V736H184V-199Z" />
<glyph unicode="}" glyph-name="braceright" horiz-adv-x="344" d="M31 -234L16 -178Q57 -168 81 -158T119 -135T138 -104T144 -56Q144 -39 142 -19T136 33T129 84T127 119Q127 140 131 157T144 191T170 220T209 245Q188 253 173 266T147 294T133 327T128 365Q128
386 130 408T136 461T142 512T144 548Q144 575 139 592T119 622T81 644T15 664L33 721Q85 713 119 701T175 670T206 625T216 560Q216 541 214 519T208 464T202 411T200 374Q200 351 205 336T223 311T257 293T312 281L308 227Q276 221 255 213T222 192T205 163T199
125Q199 108 201 90T207 39T214 -15T217 -59Q217 -100 206 -129T173 -179T115 -213T31 -234Z" />
<glyph unicode="~" glyph-name="asciitilde" horiz-adv-x="493" d="M380 322L435 308Q429 279 417 258T388 223T351 204T310 197Q289 197 271 202T230 218T194 233T166 238Q156 238 148 235T133 226T120 208T110 179L58 189Q62 217 72 238T98 273T132 295T172
303Q190 303 207 298T249 282T288 266T318 261Q329 261 338 264T356 275T370 294T380 322Z" />
</font>
</defs>
</svg>
