<?xml version="1.0" standalone="no"?> <!DOCTYPE svg PUBLIC "-//W3C//DTD SVG 1.0//EN" "http://www.w3.org/TR/2001/REC-SVG-20010904/DTD/svg10.dtd" > <svg xmlns="http://www.w3.org/2000/svg" width="100%" height="100%">
<defs >
<font horiz-adv-x="503" ><font-face
    font-family=""
    units-per-em="1000"
    panose-1="2 11 3 3 4 0 0 2 0 3"
    ascent="1076"
    descent="-408"
    alphabetic="0" />
<missing-glyph horiz-adv-x="516" d="M55 569H461V0H55V569ZM94 39H421V528H94V39ZM356 381Q356 363 352 350T340 326T318 308T283 292Q267 286 258 282T243 274T236 267T234 257Q234 252 234 245T236 231T238 218T241 206L202 200Q200 206 198 214T194 230T191
245T190 258Q190 270 193 278T204 293T226 306T266 320Q280 325 289 330T303 342T310 355T312 373Q312 390 305 403T283 426T244 441T186 446Q183 446 182 446T178 446T173 446T168 445L173 483Q178 484 182 484T192 485T202 486T212 486Q246 486 273 479T318 457T346
424T356 381ZM264 88H205V139H264V88Z" />
<glyph unicode=" " glyph-name="space" horiz-adv-x="191" />
<glyph unicode="!" glyph-name="exclam" horiz-adv-x="255" d="M160 682L157 181H110L107 682H160ZM171 0H96V65H171V0Z" />
<glyph unicode="&quot;" glyph-name="quotedbl" horiz-adv-x="414" d="M327 433L277 431V671H327V433ZM137 433L87 431V671H137V433Z" />
<glyph unicode="#" glyph-name="numbersign" horiz-adv-x="537" d="M343 413H230L195 284H308L343 413ZM486 455L483 413H389L354 284H445L440 242H342L309 121H262L295 242H183L150 121H103L136 242H50L55 284H149L184 413H93L97 455H195L230 580H276L242 455H354L389
580H435L401 455H486Z" />
<glyph unicode="$" glyph-name="dollar" horiz-adv-x="418" d="M373 117Q373 96 365 77T341 40T298 12T236 -5V-127H186L188 -7Q164 -7 144 -4T106 6T73 19T44 35L60 77Q79 67 98 60T136 46T173 37T207 34Q235 34 256 40T292 56T314 80T321 109Q321 126 317 138T300
162T264 184T201 209Q159 223 133 236T92 264T71 297T65 342Q65 364 73 384T96 420T136 448T194 464L193 616H245L243 467Q264 467 282 465T315 459T344 450T368 437L350 394Q340 399 327 404T298 413T264 419T228 421Q199 421 178 416T142 400T121 377T114 345Q114
327 119 315T136 292T171 272T231 250Q275 235 303 221T346 191T367 158T373 117Z" />
<glyph unicode="%" glyph-name="percent" horiz-adv-x="758" d="M601 514L214 -53H162L549 514H601ZM278 348Q278 319 270 295T245 253T206 226T157 216Q128 216 107 225T73 250T53 289T47 340Q47 367 56 390T81 431T120 458T170 468Q197 468 217 461T251 438T271
401T278 348ZM235 344Q235 364 231 380T218 408T196 426T166 432Q148 432 134 426T111 407T96 379T91 342Q91 320 95 303T108 275T130 257T162 251Q178 251 191 256T214 273T229 302T235 344ZM710 125Q710 96 702 72T677 30T638 3T589 -7Q560 -7 539 2T505 27T485
66T479 117Q479 144 488 168T513 209T552 236T602 246Q629 246 649 238T683 215T703 178T710 125ZM667 122Q667 142 663 158T650 185T628 203T598 209Q580 209 566 203T543 185T528 157T523 119Q523 97 527 80T540 52T562 35T594 29Q610 29 623 34T646 51T661 80T667
122Z" />
<glyph unicode="&amp;" glyph-name="ampersand" horiz-adv-x="658" d="M590 317Q590 288 580 257T549 193T500 127T433 60Q463 14 484 -14T522 -58T553 -80T583 -87Q593 -87 604 -86T628 -81T653 -75T676 -67L688 -103Q679 -108 667 -112T639 -121T606 -129T573
-132Q552 -132 534 -125T495 -100T449 -50T392 34Q378 26 360 18T319 5T274 -4T227 -8Q182 -8 148 5T90 41T56 92T44 152Q44 177 51 197T76 240T122 288T201 359Q186 388 176 414T160 462T152 504T149 542Q149 573 158 599T186 646T234 678T301 690Q332 690 355
682T395 659T419 623T427 577Q427 557 420 537T393 491T342 432T258 353Q276 320 294 288T332 224T371 160T412 96Q443 123 467 150T508 205T535 259T544 310Q544 323 541 332T528 349T500 364T453 379L466 417Q500 410 524 401T562 379T583 351T590 317ZM380 568Q380
588 374 603T355 629T327 645T291 650Q268 650 250 643T220 623T202 591T196 548Q196 533 198 517T205 481T218 438T240 389Q282 427 309 455T352 505T374 541T380 568ZM372 68Q351 100 332 131T294 194T257 258T221 322Q182 289 158 266T120 226T100 193T94 162Q94
135 103 112T131 71T177 44T240 34Q256 34 273 36T309 43T344 54T372 68Z" />
<glyph unicode="&apos;" glyph-name="quotesingle" horiz-adv-x="223" d="M136 433L86 431V671H136V433Z" />
<glyph unicode="(" glyph-name="parenleft" horiz-adv-x="295" d="M276 -210L267 -244Q223 -236 189 -213T128 -139T86 5T71 238Q71 379 86 471T128 615T189 690T267 721L275 688Q238 671 212 648T166 577T134 448T123 238Q123 111 134 29T165 -100T212 -170T276 -210Z" />
<glyph unicode=")" glyph-name="parenright" horiz-adv-x="294" d="M28 721Q72 713 106 690T166 616T208 472T223 238Q223 97 208 5T167 -138T106 -213T28 -244L19 -210Q56 -194 82 -171T128 -100T160 29T171 238Q171 365 160 447T129 577T82 647T19 688L28 721Z" />
<glyph unicode="*" glyph-name="asterisk" horiz-adv-x="465" d="M432 519L264 490L355 339L314 316L228 470L107 343L73 373L197 498L41 566L61 609L212 536L231 707L280 702L258 531L424 563L432 519Z" />
<glyph unicode="+" glyph-name="plus" horiz-adv-x="524" d="M455 250L452 208H282V45H232V208H68L73 250H232V418H282V250H455Z" />
<glyph unicode="," glyph-name="comma" horiz-adv-x="248" d="M175 -21Q175 -48 168 -68T144 -104T104 -134T42 -163L26 -130Q55 -117 74 -105T104 -81T120 -58T125 -34Q125 -25 123 -12T118 16T110 46T100 77L138 84Q146 76 152 64T164 37T172 7T175 -21Z" />
<glyph unicode="-" glyph-name="hyphen" horiz-adv-x="340" d="M304 273L302 231H35L38 273H304Z" />
<glyph unicode="." glyph-name="period" horiz-adv-x="244" d="M162 0H83V68H162V0Z" />
<glyph unicode="/" glyph-name="slash" horiz-adv-x="362" d="M341 671L71 0H21L291 671H341Z" />
<glyph unicode="0" glyph-name="zero" horiz-adv-x="523" d="M476 240Q476 186 461 141T418 62T347 11T253 -8Q201 -8 162 7T98 53T60 127T47 227Q47 277 62 321T106 398T177 449T271 468Q322 468 360 454T424 411T463 340T476 240ZM424 235Q424 283 415 319T385
379T336 416T266 428Q226 428 195 414T142 373T109 311T98 232Q98 183 107 146T136 84T187 47T261 34Q297 34 327 46T378 83T412 146T424 235Z" />
<glyph unicode="1" glyph-name="one" horiz-adv-x="302" d="M214 0H164V408L31 411V448L214 455V0Z" />
<glyph unicode="2" glyph-name="two" horiz-adv-x="458" d="M230 424Q212 424 197 422T166 413T130 396T87 366L64 402Q88 420 109 432T150 453T193 464T241 468Q275 468 303 458T351 430T381 389T391 339Q391 314 384 292T360 247T314 197T238 132L126 42H411L406
0H45L40 30L199 155Q241 188 268 212T310 256T332 293T339 329Q339 349 332 366T311 397T277 417T230 424Z" />
<glyph unicode="3" glyph-name="three" horiz-adv-x="439" d="M209 424Q192 424 176 422T144 412T108 394T67 365L44 399Q67 418 88 431T130 452T173 464T219 468Q254 468 282 458T329 429T359 386T369 333Q369 315 364 298T349 262T321 222T277 176Q305 166 326
153T360 123T380 87T387 44Q387 2 372 -31T328 -87T261 -123T175 -135Q151 -135 128 -133T84 -128T45 -119T12 -106L26 -66Q45 -73 64 -78T101 -86T139 -90T178 -92Q215 -92 244 -84T294 -59T325 -18T336 37Q336 64 323 85T282 122T214 146T118 157L123 198Q136
198 151 198T181 196T211 193T235 188Q260 211 276 230T301 265T315 297T319 327Q319 348 312 365T290 396T255 416T209 424Z" />
<glyph unicode="4" glyph-name="four" horiz-adv-x="478" d="M445 106L443 64H359V-136L309 -139V64H34L28 105L310 465L359 458V106H445ZM309 106V396L82 106H309Z" />
<glyph unicode="5" glyph-name="five" horiz-adv-x="443" d="M184 -135Q160 -135 140 -134T103 -129T71 -122T38 -110L52 -70Q71 -77 87 -81T120 -88T152 -91T190 -92Q225 -92 252 -81T298 -52T326 -8T336 44Q336 74 324 96T286 132T218 153T114 160Q110 160 104
160T93 160T79 159V459H381L376 414H122V204H147Q207 204 252 195T327 167T372 120T387 51Q387 15 374 -18T334 -78T270 -120T184 -135Z" />
<glyph unicode="6" glyph-name="six" horiz-adv-x="472" d="M432 568L420 526Q405 531 390 535T358 542T326 546T293 548Q250 548 219 537T165 501T128 438T106 346Q196 346 257 334T354 300T405 246T420 173Q420 136 409 103T374 45T316 6T237 -8Q191 -8 157
5T99 48T63 126T51 242Q51 329 66 394T113 503T190 569T297 591Q316 591 335 590T372 585T405 577T432 568ZM371 169Q371 207 352 232T297 273T213 295T101 302Q101 289 101 280T100 258T100 234Q100 180 110 142T138 80T182 45T240 34Q272 34 296 43T337 70T362
113T371 169Z" />
<glyph unicode="7" glyph-name="seven" horiz-adv-x="438" d="M408 426L143 -139L92 -136L354 414H45L50 459H404L408 426Z" />
<glyph unicode="8" glyph-name="eight" horiz-adv-x="478" d="M93 457Q93 489 105 514T138 556T190 582T255 591Q290 591 319 582T368 556T400 515T412 460Q412 441 407 423T390 384T361 341T316 290Q349 267 370 248T403 212T419 180T424 146Q424 112 411 84T374
35T314 3T237 -8Q194 -8 160 1T103 29T67 75T54 138Q54 157 59 175T76 215T110 265T168 331Q150 344 136 358T113 388T98 421T93 457ZM364 456Q364 477 356 495T332 526T295 546T248 553Q222 553 202 547T168 529T147 500T139 460Q139 446 143 434T155 410T176
386T208 361L282 312Q305 337 321 358T346 396T360 428T364 456ZM103 143Q103 117 113 96T143 61T189 40T247 33Q276 33 300 40T341 62T367 96T376 141Q376 159 370 173T353 200T325 225T282 255L200 308Q172 276 154 253T124 210T108 175T103 143Z" />
<glyph unicode="9" glyph-name="nine" horiz-adv-x="470" d="M101 291Q101 253 120 228T175 189T259 169T371 163Q371 174 371 182T372 202T372 226Q372 280 362 318T334 379T290 414T232 425Q200 425 176 416T135 389T110 347T101 291ZM40 -109L52 -68Q67 -73
82 -77T114 -83T146 -87T179 -89Q222 -89 253 -77T307 -39T344 26T366 120Q275 120 214 131T118 163T67 214T52 286Q52 323 63 356T98 414T156 454T235 468Q281 468 315 454T373 411T409 333T421 217Q421 130 406 65T359 -45T282 -111T175 -133Q156 -133 137 -131T100
-126T67 -119T40 -109Z" />
<glyph unicode=":" glyph-name="colon" horiz-adv-x="244" d="M162 322H83V389H162V322ZM162 64H83V131H162V64Z" />
<glyph unicode=";" glyph-name="semicolon" horiz-adv-x="248" d="M158 322H79V389H158V322ZM175 -21Q175 -48 168 -68T144 -104T104 -134T42 -163L26 -130Q55 -117 74 -105T104 -81T120 -58T125 -34Q125 -25 123 -12T118 16T110 46T100 77L138 84Q146 76 152
64T164 37T172 7T175 -21Z" />
<glyph unicode="&lt;" glyph-name="less" horiz-adv-x="474" d="M413 421L407 366L120 226L410 83L405 33L59 206L63 246L413 421Z" />
<glyph unicode="=" glyph-name="equal" horiz-adv-x="476" d="M414 332L411 290H68L73 332H414ZM414 174L411 132H68L73 174H414Z" />
<glyph unicode="&gt;" glyph-name="greater" horiz-adv-x="474" d="M60 33L66 88L353 228L63 371L68 421L414 248L410 208L60 33Z" />
<glyph unicode="?" glyph-name="question" horiz-adv-x="384" d="M352 497Q352 465 345 442T324 400T285 367T224 342Q195 333 178 325T152 310T140 294T137 275Q137 264 138 252T140 229T144 207T148 186L105 178Q101 187 98 199T91 224T87 250T85 273Q85 294
90 308T108 333T146 355T214 381Q240 389 257 399T283 423T297 450T301 484Q301 519 288 546T248 591T175 619T67 629H47L53 670Q58 670 70 671T84 672T93 672T106 673Q165 673 211 661T288 626T336 570T352 497ZM188 0H112V65H188V0Z" />
<glyph unicode="@" glyph-name="at" horiz-adv-x="870" d="M517 96Q483 61 464 43T429 13T399 -3T369 -8Q352 -8 337 -1T309 22T290 64T283 127Q283 190 295 242T331 333T388 393T463 414Q477 414 493 413T526 409T559 402T590 394L565 134Q564 123 563 108T561
78T560 51T559 33Q604 39 643 66T712 135T757 228T773 330Q773 394 754 443T697 524T605 573T479 589Q396 589 327 560T207 475T130 342T103 169Q103 94 115 38T154 -57T224 -115T329 -135Q350 -135 372 -133T417 -128T462 -119T507 -108L514 -145Q492 -153 468
-159T419 -170T369 -176T318 -178Q255 -178 207 -159T124 -99T73 6T55 158Q55 275 89 364T183 513T320 601T485 631Q569 631 632 610T736 551T797 458T817 336Q817 272 796 211T736 100T647 21T542 -8Q533 -8 527 -6T517 0T512 11T510 25Q510 30 510 37T512 54T514
73T517 96ZM330 126Q330 102 333 85T344 56T360 40T382 34Q393 34 402 38T425 54T455 81T520 146L542 363Q533 365 523 367T503 370T483 373T463 374Q429 374 404 355T362 301T338 223T330 126Z" />
<glyph unicode="A" glyph-name="A" horiz-adv-x="594" d="M288 569L177 267H418L312 569Q309 577 307 584T304 599T302 612T301 623Q301 618 300 612T298 598T294 584T288 569ZM568 0H513L432 224H163L75 0H25L281 671H327L568 0Z" />
<glyph unicode="B" glyph-name="B" horiz-adv-x="546" d="M496 201Q496 156 482 120T438 56T364 15T260 0H96V671H252Q301 671 336 660T394 629T426 581T437 519Q437 499 434 482T422 446T401 405T367 356Q402 348 427 333T467 297T489 252T496 201ZM386 511Q386
538 378 559T353 596T307 620T239 628H149V362H325Q342 387 354 407T373 444T383 478T386 511ZM443 192Q443 221 434 244T407 284T359 310T291 319H149V43H268Q315 43 348 54T403 87T433 134T443 192Z" />
<glyph unicode="C" glyph-name="C" horiz-adv-x="578" d="M457 463V612Q438 619 422 623T391 630T359 634T323 635Q271 635 230 614T161 551T119 452T104 323Q104 245 120 190T165 102T233 54T323 39Q350 39 376 44T427 58T477 81T525 112L544 78Q521 58 496 42T442
15T383 -2T319 -8Q253 -8 203 11T120 69T69 171T51 317Q51 397 69 464T122 579T209 653T327 679Q359 679 384 677T431 671T471 659T511 642L500 466L457 463Z" />
<glyph unicode="D" glyph-name="D" horiz-adv-x="630" d="M579 343Q579 271 562 210T507 101T410 27T270 0H91V671H289Q353 671 405 655T497 601T557 499T579 343ZM274 628H144V43H270Q336 43 384 65T464 127T510 224T525 349Q525 413 511 464T465 552T387 608T274 628Z" />
<glyph unicode="E" glyph-name="E" horiz-adv-x="493" d="M437 0H54V671H437L434 628H107V371H390V328H107V43H434L437 0Z" />
<glyph unicode="F" glyph-name="F" horiz-adv-x="490" d="M470 671L465 628H144V359H434L431 316H144V0H91V671H470Z" />
<glyph unicode="G" glyph-name="G" horiz-adv-x="618" d="M327 679Q359 679 386 677T436 669T480 655T524 636L507 595Q485 605 464 612T420 624T374 632T323 635Q271 635 230 614T161 551T119 453T104 325Q104 246 120 191T165 103T235 54T325 39Q347 39 368
41T409 49T450 63T493 83V260H327L329 303H545V61Q521 46 496 34T442 12T383 -3T320 -8Q254 -8 204 11T120 70T69 172T51 319Q51 399 69 465T122 579T209 653T327 679Z" />
<glyph unicode="H" glyph-name="H" horiz-adv-x="688" d="M597 0H544V330H144V0H91V671H144V373H544V671H597V0Z" />
<glyph unicode="I" glyph-name="I" horiz-adv-x="335" d="M297 671V634L193 630V41L297 38V0H38V38L140 41V630L38 634V671H297Z" />
<glyph unicode="J" glyph-name="J" horiz-adv-x="306" d="M152 630L42 634V671H275V634L205 630V5Q205 -36 196 -66T169 -116T123 -146T57 -156Q45 -156 33 -155T7 -151T-18 -145T-40 -137L-28 -96Q-18 -99 -7 -101T18 -106T43 -110T65 -111Q88 -111 104 -105T131
-86T147 -53T152 -4V630Z" />
<glyph unicode="K" glyph-name="K" horiz-adv-x="565" d="M545 0H481L238 355L144 258V0H91V671H144V319L473 671H530L277 395L545 0Z" />
<glyph unicode="L" glyph-name="L" horiz-adv-x="506" d="M471 0H91V671H144V43H467L471 0Z" />
<glyph unicode="M" glyph-name="M" horiz-adv-x="834" d="M414 73L677 671H743L748 0H697L696 627Q696 620 695 613T691 599T687 586T682 573L433 9H391L160 553Q157 561 155 567T152 579T149 592T148 607L139 0H91L103 671H165L414 73Z" />
<glyph unicode="N" glyph-name="N" horiz-adv-x="691" d="M601 0H553L160 553Q157 557 154 562T148 574T143 587T139 598V0H91V671H142L523 131Q528 124 532 117T541 102T549 87T553 73V671H601V0Z" />
<glyph unicode="O" glyph-name="O" horiz-adv-x="683" d="M627 347Q627 275 609 211T553 98T460 20T333 -8Q266 -8 215 11T127 70T73 173T54 325Q54 402 75 467T135 579T228 653T349 679Q416 679 467 660T554 601T608 497T627 347ZM573 342Q573 408 561 461T523
553T453 613T347 635Q291 635 246 613T170 549T123 452T107 330Q107 259 120 205T160 114T231 57T336 37Q388 37 432 57T507 117T556 214T573 342Z" />
<glyph unicode="P" glyph-name="P" horiz-adv-x="505" d="M406 473Q406 507 398 535T371 584T324 616T255 628H144V288Q152 286 162 284T186 281T213 279T241 278Q285 278 316 293T368 335T397 397T406 473ZM458 480Q458 427 445 382T403 304T334 253T237 234Q222
234 209 234T184 236T162 239T144 243V0H91V671H267Q317 671 354 657T414 618T447 558T458 480Z" />
<glyph unicode="Q" glyph-name="Q" horiz-adv-x="683" d="M627 347Q627 293 617 243T585 150T532 73T459 19Q469 -27 479 -54T502 -98T532 -120T575 -126Q585 -126 595 -125T617 -122T642 -117T670 -110L680 -152Q670 -156 656 -160T627 -167T597 -171T569 -173Q533
-173 509 -166T466 -139T434 -87T407 0Q398 -2 389 -3T371 -6T353 -7T333 -8Q266 -8 215 11T127 70T73 173T54 325Q54 402 75 467T135 579T228 653T349 679Q416 679 467 660T554 601T608 497T627 347ZM573 342Q573 408 561 461T523 553T453 613T347 635Q291 635
246 613T170 549T123 452T107 330Q107 259 120 205T160 114T231 57T336 37Q388 37 432 57T507 117T556 214T573 342Z" />
<glyph unicode="R" glyph-name="R" horiz-adv-x="545" d="M412 496Q412 531 401 556T367 597T315 620T248 628H144V320H314Q341 347 360 370T390 414T407 455T412 496ZM506 0H444L287 277H144V0H91V671H262Q315 671 353 660T417 626T454 573T466 500Q466 476 460
453T440 405T402 352T341 289L506 0Z" />
<glyph unicode="S" glyph-name="S" horiz-adv-x="514" d="M450 170Q450 130 435 97T389 41T315 5T215 -8Q188 -8 164 -6T117 2T76 14T39 31L57 76Q75 68 95 61T139 49T186 41T234 38Q274 38 304 47T355 72T385 111T395 160Q395 188 389 207T367 243T318 277T232
316Q184 335 152 354T101 394T74 440T65 500Q65 538 77 570T115 627T182 665T280 679Q303 679 324 677T365 669T401 657T434 640L417 597Q401 605 383 611T345 622T308 629T275 631Q231 631 201 623T153 599T126 561T118 509Q118 482 124 463T146 426T191 393T267
358Q322 337 357 316T413 274T441 227T450 170Z" />
<glyph unicode="T" glyph-name="T" horiz-adv-x="544" d="M533 671L530 628H300V0H247V628H9L12 671H533Z" />
<glyph unicode="U" glyph-name="U" horiz-adv-x="674" d="M589 268Q589 206 574 156T528 69T447 12T332 -8Q263 -8 216 9T139 58T98 139T85 251V671H138V260Q138 203 148 162T181 92T241 50T334 36Q391 36 430 51T493 96T528 169T539 271V671H589V268Z" />
<glyph unicode="V" glyph-name="V" horiz-adv-x="559" d="M64 671L262 100Q264 94 266 87T269 73T270 59T271 47Q271 52 272 58T274 71T278 85T283 100L498 671H552L291 0H247L7 671H64Z" />
<glyph unicode="W" glyph-name="W" horiz-adv-x="821" d="M401 511L228 0H181L13 671H68L203 109Q205 101 206 94T207 80T208 68T209 57Q209 62 210 68T212 80T215 93T219 109L385 607H444L598 109Q600 103 601 96T604 81T606 68T607 57Q607 62 607 68T609 80T612
94T616 109L756 671H808L634 0H584Q568 49 542 131T490 295T420 511Q418 518 416 525T413 539T412 552T411 563Q411 558 411 552T409 539T405 525T401 511Z" />
<glyph unicode="X" glyph-name="X" horiz-adv-x="557" d="M530 671L306 335L519 0H461L274 294L84 0H28L244 332L34 671H94L276 375L474 671H530Z" />
<glyph unicode="Y" glyph-name="Y" horiz-adv-x="512" d="M500 671L278 298V0H225V288L7 671H65L253 344L445 671H500Z" />
<glyph unicode="Z" glyph-name="Z" horiz-adv-x="499" d="M470 671L473 638L87 43H447L443 0H34L26 33L406 628H53L55 671H470Z" />
<glyph unicode="[" glyph-name="bracketleft" horiz-adv-x="307" d="M281 701L278 659H144V-185H277L275 -227H94V701H281Z" />
<glyph unicode="\" glyph-name="backslash" horiz-adv-x="375" d="M345 0H293L21 673H72L345 0Z" />
<glyph unicode="]" glyph-name="bracketright" horiz-adv-x="304" d="M210 -227H26L28 -185H160V659H30L32 701H210V-227Z" />
<glyph unicode="^" glyph-name="asciicircum" horiz-adv-x="414" d="M371 408H319L225 651Q221 660 219 668T215 683T212 694T211 702L93 408H44L191 760L234 763L371 408Z" />
<glyph unicode="_" glyph-name="underscore" horiz-adv-x="303" d="M280 42L278 0H21L24 42H280Z" />
<glyph unicode="`" glyph-name="grave" horiz-adv-x="235" d="M188 571L150 556L19 723L70 735L188 571Z" />
<glyph unicode="a" glyph-name="a" horiz-adv-x="487" d="M391 -8Q374 -8 363 -4T344 10T333 33T329 64Q313 46 295 33T257 11T215 -3T170 -8Q145 -8 124 -1T86 20T61 57T51 110Q51 137 61 156T99 191T184 218T329 235V343Q329 365 325 380T313 406T290 420T256
425Q237 425 217 421T176 410T136 393T99 369L74 404Q96 420 117 432T161 452T210 464T267 468Q296 468 317 461T352 438T372 400T379 348V68Q379 59 380 53T383 43T391 37T404 35Q411 35 419 35T435 37T450 39T465 42L468 5Q460 2 452 0T433 -4T413 -7T391 -8ZM329
195Q266 191 223 185T153 169T114 147T101 116Q101 97 106 82T122 55T148 38T185 32Q204 32 225 38T265 56T301 81T329 109V195Z" />
<glyph unicode="b" glyph-name="b" horiz-adv-x="514" d="M464 245Q464 191 450 145T409 65T340 11T247 -8Q224 -8 205 -6T166 0T128 10T89 27V702L139 707V402Q154 417 171 429T207 449T247 463T290 468Q334 468 366 454T420 413T453 343T464 245ZM413 242Q413
283 406 316T382 374T342 412T283 426Q264 426 245 421T208 405T172 381T139 350V53Q154 46 166 42T191 35T218 31T249 30Q288 30 318 44T370 87T402 154T413 242Z" />
<glyph unicode="c" glyph-name="c" horiz-adv-x="418" d="M373 75L389 35Q372 24 355 16T318 3T278 -5T234 -8Q191 -8 158 4T100 42T64 111T51 212Q51 274 65 322T108 402T175 451T264 468Q278 468 292 467T320 464T345 459T368 452L355 409Q345 413 332 415T306
420T281 423T260 424Q217 424 187 411T137 372T109 307T100 215Q100 169 109 136T136 81T183 49T249 38Q265 38 281 40T312 48T343 59T373 75Z" />
<glyph unicode="d" glyph-name="d" horiz-adv-x="511" d="M372 101V405Q362 410 350 414T324 421T296 425T268 427Q227 427 197 414T145 375T114 310T103 218Q103 171 110 137T133 80T172 46T229 35Q251 35 272 41T312 58T346 79T372 101ZM422 1L382 -2Q380 2
378 8T375 21T373 38T372 57Q360 43 344 32T309 11T267 -3T219 -8Q163 -8 128 13T77 69T56 139T51 217Q51 279 67 326T112 405T182 452T271 468Q287 468 302 467T329 463T353 457T372 448V702L422 706V1Z" />
<glyph unicode="e" glyph-name="e" horiz-adv-x="470" d="M426 56Q406 40 386 29T344 9T297 -3T243 -8Q202 -8 168 4T107 41T66 107T51 204Q51 268 65 317T105 400T171 451T259 468Q296 468 325 457T375 424T406 371T417 301Q417 295 417 287T416 270T413 240H101Q101
233 101 228T100 218T100 210T100 203Q100 160 111 129T144 77T194 48T258 38Q276 38 293 41T329 51T365 68T404 92L426 56ZM367 282V296Q367 328 359 352T334 393T297 418T249 426Q219 426 194 417T151 389T121 343T105 282H367Z" />
<glyph unicode="f" glyph-name="f" horiz-adv-x="277" d="M303 695L291 657Q287 658 279 659T261 662T241 663T224 664Q202 664 187 658T163 641T150 611T146 565V459H247L244 417H146V0H96V416L28 420L32 454L96 459V561Q96 598 104 625T129 670T169 697T224
706Q233 706 244 705T266 703T287 699T303 695Z" />
<glyph unicode="g" glyph-name="g" horiz-adv-x="494" d="M353 314Q353 338 346 358T325 393T290 416T240 425Q209 425 186 417T147 393T124 353T116 299Q116 270 124 249T147 215T184 195T235 188Q262 188 283 196T320 220T344 259T353 314ZM490 513L482 474Q475
475 468 475T453 476T439 477T428 477Q416 477 409 475T395 467T383 450T369 419Q377 411 384 400T396 376T403 348T406 318Q406 281 395 250T361 196T305 159T230 146Q224 146 218 146T204 147T192 148T182 149Q178 142 175 135T169 119T165 104T164 89Q164 77
166 70T171 58T179 53T191 51H340Q373 51 396 44T434 23T455 -7T461 -47Q461 -78 443 -107T390 -160T309 -196T205 -209Q164 -209 133 -203T81 -185T49 -152T38 -104Q38 -80 45 -61T66 -27T93 0T133 30Q129 34 126 39T121 50T117 62T116 73Q116 82 117 92T122 114T131
136T144 158Q125 165 111 177T86 207T71 247T65 297Q65 338 78 370T114 424T171 457T244 468Q261 468 276 466T303 460T325 452T341 442Q351 467 360 482T379 506T402 518T430 522Q436 522 443 522T458 520T474 517T490 513ZM412 -54Q412 -40 408 -29T395 -10T368
2T326 6H166Q143 -9 128 -21T104 -46T93 -70T89 -97Q89 -115 96 -128T120 -149T159 -161T215 -165Q259 -165 295 -156T358 -130T398 -94T412 -54Z" />
<glyph unicode="h" glyph-name="h" horiz-adv-x="523" d="M437 0H387V342Q387 360 384 375T372 402T349 420T312 427Q295 427 274 421T230 403T184 374T139 334V0H89V702L139 706V380Q165 405 189 422T237 449T282 463T327 468Q358 468 379 461T413 438T431 400T437
346V0Z" />
<glyph unicode="i" glyph-name="i" horiz-adv-x="228" d="M145 575H80V630H145V575ZM139 0H89V460L139 464V0Z" />
<glyph unicode="j" glyph-name="j" horiz-adv-x="228" d="M145 575H80V630H145V575ZM137 -55Q137 -93 130 -118T109 -160T70 -186T8 -201L1 -162Q27 -157 43 -151T69 -135T83 -107T87 -63V460L137 464V-55Z" />
<glyph unicode="k" glyph-name="k" horiz-adv-x="451" d="M139 0H89V702L139 706V0ZM435 1L369 -2L149 238L352 459H414L211 245L435 1Z" />
<glyph unicode="l" glyph-name="l" horiz-adv-x="243" d="M86 63V702L136 706V64Q136 55 137 50T140 41T147 36T160 34Q168 34 176 34T191 35T206 37T221 40L224 3Q216 0 208 -2T190 -5T170 -7T148 -8Q131 -8 119 -4T100 8T90 30T86 63Z" />
<glyph unicode="m" glyph-name="m" horiz-adv-x="786" d="M700 0H650V342Q650 360 647 375T635 402T612 420T575 427Q558 427 540 422T503 407T464 380T421 343V0H371V345Q371 364 369 378T359 404T339 421T303 427Q287 427 268 421T227 403T183 374T139 334V0H89V459L130
465Q132 460 134 452T137 432T138 408T139 380Q165 405 188 422T233 449T276 463T319 468Q342 468 360 464T390 449T411 424T421 387Q445 410 466 425T507 449T547 463T590 468Q621 468 642 461T676 438T694 400T700 346V0Z" />
<glyph unicode="n" glyph-name="n" horiz-adv-x="523" d="M437 0H387V342Q387 360 384 375T372 402T349 420T313 427Q296 427 275 421T231 403T185 374T139 334V0H89V459L130 465Q132 460 134 452T137 432T138 408T139 380Q165 405 189 422T237 449T282 463T327
468Q358 468 379 461T413 438T431 400T437 346V0Z" />
<glyph unicode="o" glyph-name="o" horiz-adv-x="504" d="M453 241Q453 185 440 140T400 61T335 10T247 -8Q199 -8 163 6T101 48T64 118T51 219Q51 274 65 319T107 398T174 450T261 468Q308 468 343 455T403 415T440 344T453 241ZM401 234Q401 277 393 312T367
373T321 413T254 427Q219 427 191 414T142 374T112 310T101 224Q101 172 112 135T143 76T191 44T253 34Q288 34 316 48T363 89T391 153T401 234Z" />
<glyph unicode="p" glyph-name="p" horiz-adv-x="514" d="M412 242Q412 283 405 316T382 374T342 412T283 426Q262 426 241 420T202 404T167 380T139 352V63Q151 56 164 51T192 42T222 35T254 33Q292 33 321 47T371 88T401 154T412 242ZM464 245Q464 191 451 145T410
65T342 11T248 -8Q230 -8 215 -7T187 -2T162 5T139 17V-192L89 -195V459L128 465Q130 461 132 454T135 438T137 420T138 402Q152 417 169 429T206 450T247 463T290 468Q333 468 365 454T420 412T453 343T464 245Z" />
<glyph unicode="q" glyph-name="q" horiz-adv-x="511" d="M422 -192L372 -194V56Q358 42 342 30T305 10T264 -3T219 -8Q163 -8 128 13T77 69T56 139T51 217Q51 279 67 326T112 405T182 452T271 468Q286 468 301 467T329 465T354 461T375 455L422 463V-192ZM372
101V411Q363 414 351 417T324 422T296 426T268 427Q227 427 197 414T145 375T114 310T103 218Q103 171 110 137T133 80T172 46T229 35Q246 35 265 40T303 53T339 74T372 101Z" />
<glyph unicode="r" glyph-name="r" horiz-adv-x="326" d="M314 464L310 424H287Q266 424 253 420T225 400T191 352T139 260V0H89V459L127 465Q130 460 132 447T135 416T137 375T138 326Q160 371 176 399T207 442T236 462T271 468Q278 468 284 468T296 467T306
466T314 464Z" />
<glyph unicode="s" glyph-name="s" horiz-adv-x="418" d="M367 117Q367 92 358 70T328 31T274 3T194 -8Q173 -8 153 -6T114 2T78 16T44 34L61 77Q81 67 99 59T134 46T169 37T204 34Q234 34 255 40T290 56T309 80T315 109Q315 127 311 139T295 162T260 184T198
209Q158 222 133 235T93 264T72 298T66 342Q66 368 76 391T107 431T159 458T232 468Q253 468 272 466T307 459T337 450T362 437L345 394Q335 399 322 404T292 413T258 419T222 422Q192 422 171 416T138 400T121 376T116 345Q116 327 120 315T136 292T170 272T229
250Q273 235 300 221T342 190T361 157T367 117Z" />
<glyph unicode="t" glyph-name="t" horiz-adv-x="341" d="M308 65L322 26Q308 17 293 11T263 1T231 -6T197 -8Q171 -8 152 -2T121 18T102 50T96 98V417L30 419L34 454L96 458L105 611L146 615V459H309L306 417H146V103Q146 84 149 72T160 51T178 40T207 36Q219
36 232 38T257 43T282 52T308 65Z" />
<glyph unicode="u" glyph-name="u" horiz-adv-x="520" d="M432 -1L391 -4Q389 1 387 9T384 27T383 49T382 72Q356 48 333 33T289 8T246 -4T202 -8Q169 -8 147 1T111 28T92 68T86 122V459L136 463V116Q136 98 140 84T154 58T179 40T216 33Q233 33 253 38T294 53T338
80T382 119V458L432 463V-1Z" />
<glyph unicode="v" glyph-name="v" horiz-adv-x="447" d="M70 459L211 90Q214 83 215 77T217 65T218 54T219 44Q219 49 219 54T221 65T224 77T229 90L380 459H430L237 0H196L18 459H70Z" />
<glyph unicode="w" glyph-name="w" horiz-adv-x="706" d="M337 366L209 0H164L18 459H70L183 94Q185 87 186 81T189 69T190 58T191 48Q191 53 191 58T193 69T197 81T201 94L325 460L371 464L500 94Q503 87 504 81T507 69T508 58T509 48Q509 53 509 58T511 69T514
81T518 94L642 459H688L527 0H484Q459 72 436 138T395 253T355 366Q353 372 352 378T349 390T348 401T347 412Q347 407 347 402T345 391T341 379T337 366Z" />
<glyph unicode="x" glyph-name="x" horiz-adv-x="444" d="M402 459L251 232L401 0H346L217 195L94 0H41L189 228L42 459H98L221 266L348 459H402Z" />
<glyph unicode="y" glyph-name="y" horiz-adv-x="447" d="M70 459L210 91Q213 84 214 78T216 66T217 55T218 45Q218 50 218 55T220 66T223 78T228 91L379 459H430L190 -110Q180 -133 169 -148T140 -173T98 -188T37 -196L32 -156Q61 -153 79 -150T109 -140T129
-123T145 -96L190 9L18 459H70Z" />
<glyph unicode="z" glyph-name="z" horiz-adv-x="427" d="M367 459L373 426L109 42H374L369 0H47L41 30L311 417H64L70 459H367Z" />
<glyph unicode="{" glyph-name="braceleft" horiz-adv-x="321" d="M304 704L313 667Q273 657 249 647T211 623T192 589T186 539Q186 521 188 501T195 449T202 400T204 367Q204 345 201 327T189 293T165 261T125 234Q145 226 159 214T183 186T197 154T202 118Q202
97 200 74T194 18T187 -35T185 -73Q185 -100 191 -118T211 -149T250 -171T314 -191L302 -230Q253 -220 223 -209T173 -182T146 -141T138 -80Q138 -64 140 -43T146 13T153 71T156 112Q156 134 151 150T132 179T98 199T44 212L47 245Q78 252 99 262T133 287T151 319T157
362Q157 379 155 397T148 446T141 499T138 542Q138 580 148 607T178 653T229 684T304 704Z" />
<glyph unicode="|" glyph-name="bar" horiz-adv-x="267" d="M158 -195H108V706H158V-195Z" />
<glyph unicode="}" glyph-name="braceright" horiz-adv-x="322" d="M278 261L275 229Q244 222 223 212T189 187T171 155T165 112Q165 95 167 77T174 27T181 -25T184 -68Q184 -107 174 -134T144 -180T93 -211T18 -231L9 -194Q49 -184 73 -174T111 -150T130 -116T136
-66Q136 -48 134 -27T127 25T120 74T118 106Q118 128 121 146T133 182T157 213T197 240Q177 248 162 260T138 288T125 320T120 356Q120 377 122 400T128 456T135 508T137 546Q137 574 131 592T111 623T72 645T7 664L20 703Q69 694 99 683T149 655T176 615T184 555Q184
538 182 517T176 461T169 403T166 361Q166 339 171 323T190 295T224 275T278 261Z" />
<glyph unicode="~" glyph-name="asciitilde" horiz-adv-x="412" d="M377 319Q373 297 364 279T340 249T309 231T273 225Q259 225 242 228T199 236T157 244T128 247Q117 247 109 245T93 236T81 219T70 189L35 197Q39 220 47 237T66 267T94 285T133 291Q145 291
161 289T202 281T243 273T271 270Q284 270 294 272T313 281T328 299T338 328L377 319Z" />
</font>
</defs>
</svg>
