<?xml version="1.0" standalone="no"?> <!DOCTYPE svg PUBLIC "-//W3C//DTD SVG 1.0//EN" "http://www.w3.org/TR/2001/REC-SVG-20010904/DTD/svg10.dtd" > <svg xmlns="http://www.w3.org/2000/svg" width="100%" height="100%">
<defs >
<font horiz-adv-x="536" ><font-face
    font-family=""
    units-per-em="1000"
    panose-1="2 11 8 3 4 0 0 2 0 3"
    ascent="1076"
    descent="-408"
    alphabetic="0" />
<missing-glyph horiz-adv-x="516" d="M55 569H461V0H55V569ZM94 39H421V528H94V39ZM356 381Q356 363 352 350T340 326T318 308T283 292Q267 286 258 282T243 274T236 267T234 257Q234 252 234 245T236 231T238 218T241 206L202 200Q200 206 198 214T194 230T191
245T190 258Q190 270 193 278T204 293T226 306T266 320Q280 325 289 330T303 342T310 355T312 373Q312 390 305 403T283 426T244 441T186 446Q183 446 182 446T178 446T173 446T168 445L173 483Q178 484 182 484T192 485T202 486T212 486Q246 486 273 479T318 457T346
424T356 381ZM264 88H205V139H264V88Z" />
<glyph unicode=" " glyph-name="space" horiz-adv-x="199" />
<glyph unicode="!" glyph-name="exclam" horiz-adv-x="308" d="M225 714L213 223H103L91 714H225ZM228 0H90V120H228V0Z" />
<glyph unicode="&quot;" glyph-name="quotedbl" horiz-adv-x="454" d="M176 410L73 403V690H176V410ZM381 410L278 403V690H381V410Z" />
<glyph unicode="#" glyph-name="numbersign" horiz-adv-x="577" d="M345 396H252L228 303H321L345 396ZM517 464L513 396H426L402 303H480L476 235H385L355 121H273L303 235H210L179 121H98L128 235H55L60 303H147L171 396H91L96 464H188L219 580H302L271 464H363L394
580H476L445 464H517Z" />
<glyph unicode="$" glyph-name="dollar" horiz-adv-x="441" d="M269 -2L271 -129H177L178 -7Q157 -6 138 -3T100 5T65 16T33 30L55 121Q74 113 96 106T140 93T182 85T219 82Q237 82 251 85T274 95T288 110T293 126Q293 136 290 143T279 157T257 169T218 183Q164
198 131 213T81 244T57 281T50 330Q50 357 59 380T85 423T126 457T180 478L179 618H273L271 483Q289 481 306 479T339 472T370 461T400 447L367 359Q355 365 339 370T305 380T270 386T239 389Q221 389 208 386T186 377T173 363T169 345Q169 333 172 326T185 312T212
299T259 284Q305 271 334 257T380 226T402 191T408 148Q408 121 400 97T374 53T330 19T269 -2Z" />
<glyph unicode="%" glyph-name="percent" horiz-adv-x="904" d="M702 528L304 -57H198L595 528H702ZM336 346Q336 313 326 286T295 238T247 206T182 195Q147 195 121 205T77 234T52 279T44 337Q44 370 55 397T86 444T135 475T198 486Q232 486 258 477T301 451T327
407T336 346ZM248 343Q248 361 245 375T235 399T217 414T192 420Q178 420 167 415T148 399T136 374T132 341Q132 320 135 305T146 280T163 265T189 260Q202 260 212 265T231 280T243 306T248 343ZM860 144Q860 111 850 84T819 36T771 4T707 -7Q672 -7 646 3T602
32T577 77T569 135Q569 167 579 194T610 242T659 273T722 284Q757 284 783 275T826 249T851 205T860 144ZM772 140Q772 158 769 172T759 196T742 211T717 217Q702 217 691 212T673 196T661 172T657 138Q657 118 660 103T670 78T687 63T713 58Q726 58 737 63T756
78T768 103T772 140Z" />
<glyph unicode="&amp;" glyph-name="ampersand" horiz-adv-x="724" d="M666 346Q666 317 656 285T625 220T575 154T508 90Q539 43 557 18T588 -21T612 -40T638 -46Q645 -46 655 -45T677 -41T699 -35T719 -28Q723 -38 726 -48T733 -69T740 -89T747 -111Q735 -118
718 -124T680 -136T640 -145T602 -148Q571 -148 550 -141T508 -115T465 -67T399 25Q384 18 365 12T325 2T283 -5T243 -7Q191 -7 151 5T85 41T45 95T32 166Q32 191 38 211T60 255T106 308T186 377Q169 405 158 430T140 476T131 517T128 556Q128 588 139 617T173
670T231 708T313 722Q353 722 384 712T435 684T466 642T477 588Q477 562 470 540T446 493T402 441T332 376Q348 348 363 322T394 270T426 218T458 167Q483 190 501 210T532 251T550 290T557 328Q557 339 554 348T542 365T520 382T487 400L541 475Q575 465 599 452T638
422T659 386T666 346ZM373 574Q373 588 369 599T356 618T336 630T310 635Q295 635 283 630T262 616T250 593T246 564Q246 553 248 541T254 513T266 481T285 446Q312 470 329 488T355 521T369 548T373 574ZM352 102Q337 126 322 150T292 199T263 247T233 298Q208
276 193 261T170 234T158 210T154 184Q154 163 162 145T187 113T224 92T270 84Q279 84 290 85T313 89T335 95T352 102Z" />
<glyph unicode="&apos;" glyph-name="quotesingle" horiz-adv-x="249" d="M176 410L73 403V690H176V410Z" />
<glyph unicode="(" glyph-name="parenleft" horiz-adv-x="339" d="M313 -165L289 -248Q229 -236 187 -209T114 -127T68 20T52 251Q52 390 67 482T112 629T185 712T289 753L312 672Q271 653 245 630T200 563T173 445T164 254Q164 136 173 62T200 -56T244 -123T313 -165Z" />
<glyph unicode=")" glyph-name="parenright" horiz-adv-x="339" d="M51 754Q110 742 152 715T225 634T271 487T287 255Q287 116 272 24T228 -122T155 -205T51 -246L27 -164Q68 -146 94 -123T139 -56T166 62T175 253Q175 371 166 445T139 563T95 630T27 672L51 754Z" />
<glyph unicode="*" glyph-name="asterisk" horiz-adv-x="538" d="M496 494L336 473L428 332L335 288L260 435L149 311L71 375L195 491L43 549L87 635L226 564L242 727L347 716L320 552L475 587L496 494Z" />
<glyph unicode="+" glyph-name="plus" horiz-adv-x="537" d="M477 282L472 194H313V43H219V194H60L65 282H219V436H313V282H477Z" />
<glyph unicode="," glyph-name="comma" horiz-adv-x="292" d="M227 -4Q227 -38 216 -65T181 -115T123 -156T40 -192L4 -120Q37 -105 57 -93T88 -70T103 -48T108 -22Q108 -13 106 2T100 37T91 75T81 110L182 128Q192 117 200 102T215 68T224 32T227 -4Z" />
<glyph unicode="-" glyph-name="hyphen" horiz-adv-x="372" d="M335 293L331 205H37L42 293H335Z" />
<glyph unicode="." glyph-name="period" horiz-adv-x="287" d="M214 0H73V121H214V0Z" />
<glyph unicode="/" glyph-name="slash" horiz-adv-x="397" d="M396 690L114 0H1L283 690H396Z" />
<glyph unicode="0" glyph-name="zero" horiz-adv-x="555" d="M521 248Q521 192 504 146T455 65T374 12T265 -7Q205 -7 161 10T89 58T48 134T34 235Q34 289 51 335T102 415T182 467T288 486Q348 486 392 470T464 424T507 349T521 248ZM395 245Q395 284 388 312T366
360T330 388T282 398Q253 398 230 387T191 356T167 306T159 241Q159 201 165 171T185 120T221 89T275 78Q303 78 325 88T363 119T387 171T395 245Z" />
<glyph unicode="1" glyph-name="one" horiz-adv-x="333" d="M268 0H146V377L23 382L29 463L268 472V0Z" />
<glyph unicode="2" glyph-name="two" horiz-adv-x="466" d="M222 386Q206 386 193 384T164 376T130 359T89 331L40 404Q67 426 91 441T140 467T190 481T245 486Q286 486 318 475T371 443T404 395T415 334Q415 310 408 289T386 246T347 203T287 154L198 88H439L430
0H40L31 71L186 182Q221 207 242 226T276 260T292 288T297 318Q297 331 292 343T277 365T253 380T222 386Z" />
<glyph unicode="3" glyph-name="three" horiz-adv-x="460" d="M214 383Q198 383 185 381T156 372T123 355T82 327L32 403Q59 425 83 441T131 467T181 481T236 486Q277 486 309 476T363 445T396 398T407 337Q407 318 402 300T387 263T361 224T320 182Q350 170 370
155T402 122T419 86T425 46Q425 1 409 -36T360 -99T281 -140T175 -154Q152 -154 130 -152T87 -146T47 -135T12 -120L34 -34Q52 -41 70 -46T107 -54T144 -59T182 -61Q211 -61 233 -55T270 -37T292 -7T300 33Q300 54 290 69T262 95T217 111T156 117Q153 117 149 117T140
117T130 117T119 116L114 206Q126 206 133 206T149 207T165 207Q175 207 185 207T204 207T221 206T235 204Q250 222 260 236T276 264T285 290T288 315Q288 329 283 341T267 362T244 377T214 383Z" />
<glyph unicode="4" glyph-name="four" horiz-adv-x="537" d="M504 111L497 23H419V-150L297 -157V23H42L24 106L302 472H419V111H504ZM297 111V332L133 111H297Z" />
<glyph unicode="5" glyph-name="five" horiz-adv-x="463" d="M178 -154Q155 -154 135 -153T97 -148T60 -139T23 -125L44 -38Q63 -45 81 -49T117 -57T153 -61T190 -62Q219 -62 240 -55T275 -33T294 -1T301 39Q301 62 293 78T265 106T214 123T137 129Q131 129 121
129T100 128T80 127T64 126V472H417L408 372H159V227Q167 227 174 227T187 228T197 228T205 228Q261 228 303 215T373 177T413 121T426 52Q426 7 410 -31T361 -96T283 -139T178 -154Z" />
<glyph unicode="6" glyph-name="six" horiz-adv-x="504" d="M479 596L454 511Q438 517 420 521T382 530T343 536T308 538Q274 538 250 529T208 501T180 450T163 374Q241 373 296 365T390 336T447 280T467 191Q467 151 453 115T411 52T343 9T252 -7Q196 -7 155
9T88 60T48 144T35 263Q35 360 53 429T108 543T196 609T319 630Q340 630 362 628T406 621T446 610T479 596ZM353 187Q353 215 340 233T301 263T241 278T158 283Q158 232 163 195T179 133T210 96T256 83Q279 83 297 90T328 110T346 143T353 187Z" />
<glyph unicode="7" glyph-name="seven" horiz-adv-x="467" d="M439 396L182 -153L75 -145L314 372H25L34 472H433L439 396Z" />
<glyph unicode="8" glyph-name="eight" horiz-adv-x="506" d="M73 479Q73 512 86 539T124 587T186 619T267 630Q310 630 344 620T403 591T439 545T452 483Q452 465 447 447T431 408T404 365T366 317Q397 293 416 274T447 239T462 207T467 173Q467 132 451 99T406
42T336 6T246 -7Q195 -7 157 3T92 33T52 84T38 157Q38 177 43 196T59 236T91 283T143 344Q125 359 112 374T90 405T77 439T73 479ZM349 475Q349 491 344 504T327 527T301 542T267 547Q249 547 235 543T210 530T194 508T188 478Q188 468 190 459T198 440T213 422T236
403L297 360Q311 379 321 395T337 426T346 452T349 475ZM148 162Q148 143 155 128T175 101T208 84T251 78Q273 78 289 84T317 100T334 126T340 159Q340 172 336 183T324 205T305 226T276 248L211 293Q194 271 183 254T164 222T152 192T148 162Z" />
<glyph unicode="9" glyph-name="nine" horiz-adv-x="503" d="M150 291Q150 263 164 244T203 215T264 200T345 195Q345 201 345 206T345 218T345 233T344 250Q343 288 336 315T317 360T288 386T247 395Q224 395 206 388T175 368T157 335T150 291ZM24 -119L49 -35Q65
-41 83 -45T121 -54T160 -60T195 -62Q229 -62 253 -53T295 -23T324 29T341 105Q262 106 207 114T113 143T56 198T36 287Q36 327 50 363T92 427T160 470T251 486Q307 486 348 470T415 419T455 335T468 215Q468 119 450 49T395 -66T306 -132T184 -154Q164 -154 142
-152T97 -145T57 -134T24 -119Z" />
<glyph unicode=":" glyph-name="colon" horiz-adv-x="287" d="M214 313H73V434H214V313ZM214 36H73V156H214V36Z" />
<glyph unicode=";" glyph-name="semicolon" horiz-adv-x="288" d="M212 313H72V434H212V313ZM227 -4Q227 -38 216 -65T181 -115T123 -156T40 -192L4 -120Q37 -105 57 -93T88 -70T103 -48T108 -22Q108 -13 106 2T100 37T91 75T81 110L182 128Q192 117 200 102T215
68T224 32T227 -4Z" />
<glyph unicode="&lt;" glyph-name="less" horiz-adv-x="501" d="M436 455L430 358L174 238L428 121L421 22L48 199L55 274L436 455Z" />
<glyph unicode="=" glyph-name="equal" horiz-adv-x="517" d="M457 374L452 286H61L66 374H457ZM457 190L452 102H61L66 190H457Z" />
<glyph unicode="&gt;" glyph-name="greater" horiz-adv-x="501" d="M65 22L71 119L327 239L73 356L80 455L453 278L446 203L65 22Z" />
<glyph unicode="?" glyph-name="question" horiz-adv-x="429" d="M405 530Q405 498 399 475T378 434T338 402T274 374Q248 365 233 359T210 346T200 334T197 318Q197 309 198 298T200 275T204 251T208 227L109 216Q104 229 100 244T93 276T88 306T86 331Q86 353
90 366T108 391T146 413T215 438Q237 445 251 452T273 468T284 486T288 509Q288 535 277 554T242 587T180 607T89 614Q82 614 78 614T68 614T57 614T43 613L54 715Q65 716 75 717T96 719T119 720T143 721Q207 721 256 707T339 668T388 607T405 530ZM246 0H108V120H246V0Z"
/>
<glyph unicode="@" glyph-name="at" horiz-adv-x="935" d="M517 73Q489 46 471 31T439 7T412 -4T381 -7Q357 -7 338 3T304 33T282 83T274 153Q274 225 289 280T333 374T402 431T494 450Q510 450 529 448T571 443T614 435T653 425L628 168Q627 158 626 147T623
109T621 84T621 78Q662 85 696 109T755 170T792 253T805 349Q805 408 786 454T728 531T634 579T504 596Q424 596 356 567T237 482T160 350T133 178Q133 101 146 46T185 -45T248 -96T336 -112Q352 -112 370 -110T409 -105T450 -96T491 -85L512 -154Q493 -163 471
-171T425 -184T377 -193T328 -196Q260 -196 207 -178T115 -117T57 -3T36 170Q36 286 73 381T176 542T329 642T517 677Q613 677 684 655T802 590T872 488T895 354Q895 283 872 218T805 102T703 22T574 -7Q556 -7 545 -3T528 12T520 36T517 73ZM384 169Q384 149 387
133T396 107T411 91T432 85Q439 85 447 88T464 97T487 115T519 144L540 353Q533 355 525 356T508 359T493 360T479 361Q454 361 436 348T407 309T390 248T384 169Z" />
<glyph unicode="A" glyph-name="A" horiz-adv-x="628" d="M300 500L216 258H399L320 500Q318 507 316 514T313 529T312 542T311 553Q311 548 311 542T309 529T305 515T300 500ZM623 0H485L430 162H184L125 0H2L256 690H377L623 0Z" />
<glyph unicode="B" glyph-name="B" horiz-adv-x="578" d="M542 214Q542 165 524 126T472 58T386 15T271 0H67V690H281Q337 690 378 679T445 645T483 592T495 521Q495 502 491 484T478 448T457 410T429 371Q459 361 480 345T515 309T535 265T542 214ZM373 504Q373
527 367 543T347 571T311 588T257 594H192V396H337Q347 413 354 427T365 454T371 479T373 504ZM414 207Q414 229 407 247T386 279T350 299T300 306H192V96H281Q316 96 341 103T383 125T406 160T414 207Z" />
<glyph unicode="C" glyph-name="C" horiz-adv-x="602" d="M428 444L425 583Q415 586 407 587T391 590T375 591T357 592Q314 592 280 577T223 530T187 452T174 341Q174 272 188 225T226 150T282 111T352 99Q376 99 400 102T447 113T493 130T536 152L570 59Q543
43 517 31T461 10T399 -2T327 -7Q256 -7 203 13T114 74T60 179T41 330Q41 414 62 482T123 598T222 671T355 696Q388 696 415 694T464 687T507 676T548 659L535 450L428 444Z" />
<glyph unicode="D" glyph-name="D" horiz-adv-x="657" d="M616 360Q616 273 595 206T532 93T427 24T283 0H67V690H302Q379 690 437 673T535 616T595 514T616 360ZM283 594H192V96H283Q335 96 373 112T437 160T474 239T487 350Q487 413 476 458T439 534T376 579T283 594Z" />
<glyph unicode="E" glyph-name="E" horiz-adv-x="544" d="M503 0H68V690H501L493 594H193V402H461V306H193V96H494L503 0Z" />
<glyph unicode="F" glyph-name="F" horiz-adv-x="510" d="M487 690L478 594H193V388H453L445 292H193V0H68V690H487Z" />
<glyph unicode="G" glyph-name="G" horiz-adv-x="648" d="M589 62Q564 46 535 34T473 12T404 -2T331 -7Q260 -7 207 12T116 71T60 176T41 329Q41 414 62 482T123 598T221 671T353 696Q389 696 417 694T469 688T517 676T566 656L533 558Q513 567 492 573T448 584T403
591T357 593Q313 593 279 577T221 530T185 451T172 342Q172 273 185 225T222 148T281 105T358 92Q373 92 387 93T414 97T439 104T466 115V254H339L346 344H589V62Z" />
<glyph unicode="H" glyph-name="H" horiz-adv-x="699" d="M631 0H506V303H193V0H68V690H193V399H506V690H631V0Z" />
<glyph unicode="I" glyph-name="I" horiz-adv-x="392" d="M355 690V604L258 598V88L357 84V0H35V84L133 88V598L38 604V690H355Z" />
<glyph unicode="J" glyph-name="J" horiz-adv-x="352" d="M-30 -154L-8 -64Q2 -67 14 -69T38 -72T61 -75T80 -76Q99 -76 112 -72T134 -58T146 -35T150 -1V598L40 604V690H346V604L275 599V21Q275 -25 263 -61T226 -123T167 -161T86 -174Q73 -174 58 -173T27 -169T-3
-162T-30 -154Z" />
<glyph unicode="K" glyph-name="K" horiz-adv-x="606" d="M611 0H456L252 314L193 249V0H68V690H193V382L451 690H581L345 401L611 0Z" />
<glyph unicode="L" glyph-name="L" horiz-adv-x="504" d="M482 0H68V690H193V96H474L482 0Z" />
<glyph unicode="M" glyph-name="M" horiz-adv-x="850" d="M786 0H663L660 487Q659 480 658 474T655 462T651 450T645 437L459 14H375L197 422Q194 430 192 436T187 448T184 460T182 473L175 0H66L78 690H200L425 179L657 690H778L786 0Z" />
<glyph unicode="N" glyph-name="N" horiz-adv-x="708" d="M641 0H531L210 442Q205 448 202 454T195 465T189 476T185 485V0H68V690H178L497 241Q503 233 507 226T515 214T521 203T525 194V690H641V0Z" />
<glyph unicode="O" glyph-name="O" horiz-adv-x="697" d="M655 356Q655 279 635 213T575 97T474 21T335 -7Q263 -7 209 11T117 70T61 176T42 333Q42 417 63 484T126 598T226 671T360 696Q432 696 486 677T578 618T635 512T655 356ZM521 350Q521 410 512 455T483
532T431 580T355 597Q313 597 280 581T223 532T188 452T176 344Q176 278 186 231T216 154T267 109T343 94Q386 94 419 111T475 161T509 241T521 350Z" />
<glyph unicode="P" glyph-name="P" horiz-adv-x="543" d="M389 464Q389 491 383 514T364 555T327 583T271 594H193V312Q196 311 205 311T225 310T248 309T265 308Q298 308 322 320T361 354T382 404T389 464ZM513 474Q513 419 496 372T445 289T366 235T264 216Q257
216 247 216T225 216T205 218T193 220V0H68V690H288Q346 690 389 674T459 630T500 562T513 474Z" />
<glyph unicode="Q" glyph-name="Q" horiz-adv-x="697" d="M655 356Q655 301 645 251T613 157T560 81T487 26Q498 -7 506 -26T524 -55T546 -70T577 -74Q585 -74 596 -73T621 -70T649 -66T677 -61L690 -154Q676 -159 659 -163T623 -171T587 -175T557 -177Q519 -177
494 -170T451 -145T417 -94T385 -4Q379 -5 373 -5T361 -6T348 -7T335 -7Q263 -7 209 11T117 70T61 176T42 333Q42 417 63 484T126 598T226 671T360 696Q432 696 486 677T578 618T635 512T655 356ZM521 350Q521 410 512 455T483 532T431 580T355 597Q313 597 280
581T223 532T188 452T176 344Q176 278 186 231T216 154T267 109T343 94Q386 94 419 111T475 161T509 241T521 350Z" />
<glyph unicode="R" glyph-name="R" horiz-adv-x="580" d="M395 492Q395 518 388 537T365 569T326 588T269 594H193V352H331Q349 373 361 391T380 425T391 458T395 492ZM564 0H422L293 256H193V0H68V690H283Q344 690 388 678T461 643T504 583T518 498Q518 473 512
449T492 400T457 349T405 293L564 0Z" />
<glyph unicode="S" glyph-name="S" horiz-adv-x="545" d="M502 203Q502 158 486 120T436 54T354 9T242 -7Q210 -7 183 -5T130 3T79 17T28 38L61 143Q82 134 106 126T155 112T206 103T253 100Q282 100 305 106T343 123T366 149T374 182Q374 202 369 216T350 241T313
263T249 285Q195 301 159 317T100 355T65 410T53 488Q53 533 68 570T113 636T186 680T286 696Q316 696 344 693T398 685T446 672T488 654L457 557Q439 564 418 570T374 581T331 587T294 590Q264 590 243 585T209 570T189 543T182 506Q182 486 186 472T203 446T237
424T294 403Q358 384 398 365T461 323T493 272T502 203Z" />
<glyph unicode="T" glyph-name="T" horiz-adv-x="561" d="M554 690L546 594H344V0H219V594H7L15 690H554Z" />
<glyph unicode="U" glyph-name="U" horiz-adv-x="673" d="M611 272Q611 209 594 158T541 69T452 13T328 -7Q257 -7 206 9T124 59T77 143T62 264V690H187V264Q187 219 195 187T220 135T266 104T336 94Q379 94 409 105T457 138T483 192T491 270V690H611V272Z" />
<glyph unicode="V" glyph-name="V" horiz-adv-x="599" d="M309 202L482 690H603L346 0H227L-4 690H138L291 202Q293 195 294 188T297 174T298 161T299 150Q299 155 299 161T301 174T305 188T309 202Z" />
<glyph unicode="W" glyph-name="W" horiz-adv-x="885" d="M428 447L301 0H167L10 690H145L242 206Q243 198 244 191T246 178T247 165T247 154Q247 159 248 165T250 177T253 190T257 206L387 653H508L631 206Q633 199 634 192T637 178T638 165T639 154Q639 159
639 165T641 177T643 191T647 206L757 690H875L708 0H573L444 447Q442 454 441 461T438 474T437 487T436 498Q436 493 436 487T434 475T432 461T428 447Z" />
<glyph unicode="X" glyph-name="X" horiz-adv-x="582" d="M576 690L365 354L574 0H429L286 246L139 0H3L215 340L12 690H155L294 446L445 690H576Z" />
<glyph unicode="Y" glyph-name="Y" horiz-adv-x="574" d="M580 690L339 298V0H214V295L-6 690H139L288 418L455 690H580Z" />
<glyph unicode="Z" glyph-name="Z" horiz-adv-x="530" d="M507 690L512 612L168 96H502L496 0H30L21 91L350 594H40L47 690H507Z" />
<glyph unicode="[" glyph-name="bracketleft" horiz-adv-x="333" d="M308 733L301 648H176V-143H306L300 -229H68V733H308Z" />
<glyph unicode="\" glyph-name="backslash" horiz-adv-x="403" d="M398 0H283L1 690H115L398 0Z" />
<glyph unicode="]" glyph-name="bracketright" horiz-adv-x="332" d="M265 -229H25L32 -143H157V648H27L33 733H265V-229Z" />
<glyph unicode="^" glyph-name="asciicircum" horiz-adv-x="479" d="M317 395L247 593Q242 608 239 618T234 637T231 653T230 670Q230 661 229 653T227 637T222 619T213 593L146 395H38L195 785H298L442 395H317Z" />
<glyph unicode="_" glyph-name="underscore" horiz-adv-x="373" d="M350 88L346 0H19L24 88H350Z" />
<glyph unicode="`" glyph-name="grave" horiz-adv-x="314" d="M265 569L185 552L47 734L141 755L265 569Z" />
<glyph unicode="a" glyph-name="a" horiz-adv-x="510" d="M430 -7Q404 -7 385 -3T351 9T327 28T314 54Q299 37 283 26T250 7T212 -3T166 -7Q139 -7 115 2T73 29T44 73T34 133Q34 161 44 181T84 218T167 246T308 265V334Q308 350 306 361T297 379T282 389T259 392Q240
392 220 388T179 377T140 360T102 337L54 411Q80 430 106 444T160 467T220 481T288 486Q329 486 357 476T401 445T424 397T431 329V133Q431 118 433 111T441 98T461 90T499 83L479 -6Q473 -6 467 -6T454 -7T443 -7T430 -7ZM308 198Q260 195 230 190T182 178T157
162T150 138Q150 124 154 113T166 93T185 81T211 77Q225 77 239 80T266 90T289 105T308 122V198Z" />
<glyph unicode="b" glyph-name="b" horiz-adv-x="543" d="M188 726V426Q204 441 220 452T254 470T291 482T331 486Q371 486 403 473T457 431T492 359T504 256Q504 193 488 144T440 62T363 11T259 -7Q235 -7 210 -5T159 3T110 15T66 33V718L188 726ZM380 243Q380
277 374 303T356 349T326 377T285 387Q273 387 260 384T235 375T212 361T188 342V92Q197 89 206 86T224 82T244 79T264 78Q293 78 314 88T350 118T372 170T380 243Z" />
<glyph unicode="c" glyph-name="c" horiz-adv-x="428" d="M398 465L373 377Q361 381 349 383T326 387T304 390T283 391Q251 391 228 381T190 351T168 301T161 228Q161 193 167 168T187 125T220 99T270 90Q284 90 298 92T327 97T355 106T383 117L414 32Q397 23
378 16T337 3T293 -4T245 -7Q194 -7 156 5T91 45T52 115T39 219Q39 284 56 334T104 418T178 469T272 486Q290 486 307 485T339 482T369 475T398 465Z" />
<glyph unicode="d" glyph-name="d" horiz-adv-x="541" d="M474 2L365 -7Q363 -2 362 5T359 20T357 37T356 54Q342 40 327 29T294 10T258 -2T218 -7Q169 -7 135 8T80 53T49 125T39 223Q39 285 55 334T100 417T171 468T263 486Q276 486 288 485T311 483T332 478T352
471V718L474 726V2ZM352 122V383Q343 387 334 389T316 394T296 397T275 398Q249 398 229 389T194 359T171 306T163 231Q163 190 169 162T188 118T217 94T259 86Q272 86 285 89T311 97T333 109T352 122Z" />
<glyph unicode="e" glyph-name="e" horiz-adv-x="497" d="M458 49Q437 36 414 26T364 8T311 -3T256 -7Q204 -7 164 5T96 45T54 114T39 216Q39 277 54 327T99 412T172 467T272 486Q319 486 353 471T408 428T439 361T449 270Q449 263 449 258T449 245T448 230T446
212H159Q159 180 165 156T186 117T221 93T273 85Q291 85 311 88T351 98T391 112T429 130L458 49ZM163 285H340Q340 313 335 334T319 369T293 390T258 397Q236 397 220 390T192 368T173 333T163 285Z" />
<glyph unicode="f" glyph-name="f" horiz-adv-x="316" d="M327 709L309 624Q301 626 292 627T273 630T255 633T239 634Q226 634 218 632T206 624T199 609T197 585V472H296L289 384H197V0H75V384L14 388L21 470L75 472V570Q75 611 83 640T108 688T153 716T219 726Q234
726 249 725T278 721T304 716T327 709Z" />
<glyph unicode="g" glyph-name="g" horiz-adv-x="529" d="M529 540L520 441Q511 442 503 443T487 444T474 445T462 446Q454 446 449 444T439 438T431 426T422 407Q429 399 434 388T444 365T450 339T452 314Q452 274 437 242T394 189T328 156T244 145H219Q216 141
214 136T211 125T209 114T208 104Q208 96 209 91T213 83T220 79T231 78H332Q375 78 405 72T454 52T481 16T490 -37Q490 -72 471 -105T416 -165T329 -207T216 -222Q167 -222 130 -215T67 -195T29 -160T16 -110Q16 -90 22 -73T40 -41T71 -11T116 22Q113 25 111 29T108
38T105 48T104 59Q104 70 106 80T112 101T125 126T145 156Q122 162 103 174T70 204T49 246T41 300Q41 343 56 377T101 436T169 473T254 486Q271 486 287 484T316 479T342 471T364 460Q372 489 380 507T399 534T422 548T455 552Q463 552 472 551T492 549T511 545T529
540ZM334 314Q334 333 329 348T314 375T287 393T250 400Q227 400 210 394T182 375T165 346T159 306Q159 284 164 269T181 243T208 227T245 222Q265 222 281 227T309 244T327 273T334 314ZM382 -55Q382 -44 379 -38T367 -27T346 -21T311 -19H164Q154 -27 147 -34T136
-49T129 -62T127 -77Q127 -91 133 -101T152 -119T185 -129T234 -133Q269 -133 297 -126T344 -108T372 -82T382 -55Z" />
<glyph unicode="h" glyph-name="h" d="M473 0H351V330Q351 343 349 353T341 370T326 380T303 384Q291 384 278 380T249 368T219 349T188 323V0H66V718L187 725V412Q209 431 230 445T271 468T311 481T351 486Q384 486 407 478T445 454T466 412T473 353V0Z" />
<glyph unicode="i" glyph-name="i" horiz-adv-x="255" d="M189 565H66V673H189V565ZM188 0H66V472L188 479V0Z" />
<glyph unicode="j" glyph-name="j" horiz-adv-x="255" d="M189 565H66V673H189V565ZM188 -14Q188 -68 176 -105T140 -165T78 -200T-14 -217L-31 -125Q0 -121 18 -115T47 -100T62 -78T66 -44V472L188 479V-14Z" />
<glyph unicode="k" glyph-name="k" horiz-adv-x="503" d="M188 281L343 472H476L299 261L494 0H336L188 211V0H66V718L188 725V281Z" />
<glyph unicode="l" glyph-name="l" horiz-adv-x="275" d="M66 86V718L188 725V129Q188 115 189 108T192 96T201 90T217 88Q221 88 224 88T231 88T241 88T254 90L257 5Q249 2 238 0T213 -3T185 -6T158 -7Q134 -7 117 -2T89 14T72 43T66 86Z" />
<glyph unicode="m" glyph-name="m" horiz-adv-x="807" d="M619 0V329Q619 342 617 352T610 369T595 380T572 384Q561 384 549 380T523 369T495 351T465 326V0H343V330Q343 344 341 353T334 370T321 380T298 384Q287 384 274 380T247 368T218 349T188 322V0H66V473L173
481Q175 476 177 468T180 450T183 430T185 408Q207 428 227 442T268 466T307 481T347 486Q373 486 392 481T425 466T447 442T459 409Q478 427 497 441T537 465T577 480T618 486Q653 486 676 478T714 454T734 414T741 357V0H619Z" />
<glyph unicode="n" glyph-name="n" horiz-adv-x="539" d="M473 0H351V330Q351 343 349 353T341 370T326 380T303 384Q291 384 278 380T249 368T219 349T188 323V0H66V473L172 480Q174 475 176 468T179 451T182 431T184 409Q205 428 226 442T269 466T310 481T351
486Q384 486 407 478T445 454T466 412T473 353V0Z" />
<glyph unicode="o" glyph-name="o" horiz-adv-x="537" d="M498 249Q498 193 483 146T437 65T361 12T259 -7Q203 -7 162 7T94 51T53 125T39 230Q39 287 55 334T103 415T178 467T278 486Q334 486 375 472T443 429T484 355T498 249ZM372 243Q372 282 367 311T349
359T317 388T271 398Q246 398 227 388T193 358T172 308T165 240Q165 196 171 165T191 116T223 89T267 80Q294 80 313 90T346 121T365 172T372 243Z" />
<glyph unicode="p" glyph-name="p" horiz-adv-x="543" d="M380 243Q380 277 374 303T356 349T326 377T285 387Q272 387 259 384T233 374T210 360T188 343V92Q196 89 205 86T224 81T245 77T266 76Q294 76 315 86T350 118T372 170T380 243ZM504 252Q504 198 491
152T449 69T375 13T268 -7Q258 -7 247 -7T224 -5T204 -1T188 4V-197L66 -204V472L172 481Q174 476 176 469T179 455T181 440T183 423Q198 438 215 449T251 469T290 482T331 486Q371 486 403 473T457 430T492 357T504 252Z" />
<glyph unicode="q" glyph-name="q" horiz-adv-x="541" d="M475 -197L352 -204V48Q340 37 325 27T293 10T256 -2T216 -7Q165 -7 131 10T76 57T48 129T39 223Q39 285 55 334T100 417T172 468T266 486Q280 486 294 485T321 481T347 475T370 469L475 480V-197ZM353
122V384Q345 387 336 389T317 394T297 397T276 398Q250 398 230 389T195 359T172 306T164 231Q164 190 170 162T189 118T218 94T260 86Q271 86 283 88T308 95T331 107T353 122Z" />
<glyph unicode="r" glyph-name="r" horiz-adv-x="348" d="M346 479L333 376Q330 376 323 376T312 377T304 378T295 378Q278 378 267 375T246 363T223 335T188 283V0H66V472L162 481Q165 476 167 466T171 442T174 413T176 380Q193 414 206 434T232 466T258 482T289
486Q297 486 304 486T319 484T333 482T346 479Z" />
<glyph unicode="s" glyph-name="s" horiz-adv-x="438" d="M402 142Q402 110 390 83T354 36T292 4T206 -7Q182 -7 159 -5T114 2T71 14T30 31L53 121Q72 112 93 105T136 93T178 85T215 82Q234 82 248 85T271 95T284 109T288 127Q288 137 286 145T275 160T253 173T214
187Q163 202 131 217T81 250T57 287T50 336Q50 369 63 397T100 445T159 475T233 486Q255 486 276 484T317 478T357 467T396 451L366 363Q354 369 337 374T302 384T267 390T235 392Q217 392 204 389T183 379T172 365T168 347Q168 335 171 327T183 312T209 298T257
282Q301 269 329 255T373 224T395 188T402 142Z" />
<glyph unicode="t" glyph-name="t" horiz-adv-x="364" d="M348 24Q335 17 319 11T285 1T245 -5T201 -7Q169 -7 146 0T107 21T83 59T75 114V385L15 388L22 470L78 472L92 619L197 628V472H338L331 384H197V120Q197 110 199 104T205 93T216 87T233 85Q243 85 255
86T279 90T304 96T327 105L348 24Z" />
<glyph unicode="u" glyph-name="u" horiz-adv-x="534" d="M468 0L362 -7Q360 -2 358 7T355 26T352 47T350 66Q330 48 309 34T267 11T226 -2T185 -7Q151 -7 128 1T90 27T70 69T63 128V472L185 477V148Q185 135 188 125T197 108T212 98T235 94Q246 94 259 97T286
107T315 125T346 150V472L468 477V0Z" />
<glyph unicode="v" glyph-name="v" horiz-adv-x="473" d="M129 472L231 176Q234 169 235 162T238 149T239 138T240 127Q240 132 240 137T242 149T245 162T249 176L359 472H471L285 0H176L2 472H129Z" />
<glyph unicode="w" glyph-name="w" horiz-adv-x="715" d="M341 294L246 0H147L10 472H129L204 182Q206 172 207 166T210 154T212 143T213 133Q213 138 213 143T215 155T218 168T222 182L309 469L412 475L495 182Q497 174 499 168T502 155T503 144T504 133Q504
138 504 143T506 155T509 168T513 182L597 472H702L553 0H446L359 294Q357 300 356 307T353 320T352 333T351 344Q351 339 351 334T349 322T345 308T341 294Z" />
<glyph unicode="x" glyph-name="x" horiz-adv-x="478" d="M463 472L311 241L465 0H326L226 161L131 0H11L165 241L17 472H156L249 316L345 472H463Z" />
<glyph unicode="y" glyph-name="y" horiz-adv-x="473" d="M129 472L231 177Q234 170 235 163T238 150T239 138T240 127Q240 132 240 138T242 150T244 163T249 177L357 472H468L240 -102Q229 -131 213 -151T175 -185T122 -205T47 -215L28 -127Q58 -124 78 -119T111
-107T132 -91T146 -67L175 4L6 472H129Z" />
<glyph unicode="z" glyph-name="z" horiz-adv-x="449" d="M400 472L407 400L191 88H412L403 0H47L39 77L260 384H50L60 472H400Z" />
<glyph unicode="{" glyph-name="braceleft" horiz-adv-x="375" d="M328 745L353 663Q310 652 286 643T247 622T228 594T223 550Q223 533 225 513T231 461T237 409T239 370Q239 351 234 334T218 301T191 274T152 255Q174 246 190 233T217 203T233 168T238 129Q238
109 236 88T231 36T226 -11T224 -44Q224 -70 229 -87T247 -116T286 -137T353 -157L327 -241Q266 -234 226 -220T161 -181T126 -123T115 -40Q115 -21 117 -2T122 43T128 85T130 116Q130 135 125 149T107 172T73 188T17 199L24 282Q56 285 77 291T109 308T126 331T131
363Q131 381 129 399T123 451T116 507T114 553Q114 598 126 631T165 687T231 725T328 745Z" />
<glyph unicode="|" glyph-name="bar" horiz-adv-x="352" d="M222 -203H130V777H222V-203Z" />
<glyph unicode="}" glyph-name="braceright" horiz-adv-x="375" d="M358 305L351 221Q319 218 298 212T266 196T249 173T244 140Q244 122 246 103T252 52T259 -4T261 -49Q261 -96 249 -129T210 -185T144 -221T47 -242L23 -160Q66 -149 90 -140T128 -119T147 -91T152
-47Q152 -29 150 -9T145 43T139 95T137 133Q137 152 142 169T157 202T184 230T223 249Q200 258 184 271T158 300T143 335T138 375Q138 395 139 416T144 467T149 514T151 548Q151 574 146 591T128 620T90 641T23 660L48 745Q106 737 146 724T211 690T249 638T261
562Q261 543 259 522T253 471T247 423T245 387Q245 369 250 356T267 333T302 316T358 305Z" />
<glyph unicode="~" glyph-name="asciitilde" horiz-adv-x="470" d="M367 334L437 315Q431 282 419 258T390 218T352 195T306 187Q283 187 263 192T217 208T179 223T153 227Q143 227 135 225T120 216T107 199T97 170L30 185Q34 217 44 241T71 282T107 307T152 316Q173
316 192 311T236 296T275 281T305 276Q316 276 325 279T343 288T357 306T367 334Z" />
</font>
</defs>
</svg>
