<?xml version="1.0" standalone="no"?> <!DOCTYPE svg PUBLIC "-//W3C//DTD SVG 1.0//EN" "http://www.w3.org/TR/2001/REC-SVG-20010904/DTD/svg10.dtd" > <svg xmlns="http://www.w3.org/2000/svg" width="100%" height="100%">
<defs >
<font horiz-adv-x="573" ><font-face
    font-family=""
    units-per-em="1000"
    panose-1="2 11 10 3 4 0 0 2 0 3"
    ascent="1076"
    descent="-408"
    alphabetic="0" />
<missing-glyph horiz-adv-x="516" d="M55 569H461V0H55V569ZM94 39H421V528H94V39ZM356 381Q356 363 352 350T340 326T318 308T283 292Q267 286 258 282T243 274T236 267T234 257Q234 252 234 245T236 231T238 218T241 206L202 200Q200 206 198 214T194 230T191
245T190 258Q190 270 193 278T204 293T226 306T266 320Q280 325 289 330T303 342T310 355T312 373Q312 390 305 403T283 426T244 441T186 446Q183 446 182 446T178 446T173 446T168 445L173 483Q178 484 182 484T192 485T202 486T212 486Q246 486 273 479T318 457T346
424T356 381ZM264 88H205V139H264V88Z" />
<glyph unicode=" " glyph-name="space" horiz-adv-x="218" />
<glyph unicode="!" glyph-name="exclam" horiz-adv-x="393" d="M299 583L282 222H133L118 583H299ZM118 157H299V0H118V157Z" />
<glyph unicode="&quot;" glyph-name="quotedbl" horiz-adv-x="492" d="M428 710V376L289 367V710H428ZM203 710V376L64 367V710H203Z" />
<glyph unicode="#" glyph-name="numbersign" horiz-adv-x="519" d="M308 430H229L212 361H291L308 430ZM500 516L496 430H413L396 361H466L463 275H375L348 168H242L270 275H190L162 168H57L84 275H19L25 361H107L124 430H52L58 516H146L175 625H282L253 516H332L360
625H465L437 516H500Z" />
<glyph unicode="$" glyph-name="dollar" horiz-adv-x="519" d="M197 -139L198 -9Q176 -8 155 -5T112 3T71 16T30 33L71 157Q91 149 113 142T158 129T202 120T242 117Q259 117 271 119T291 127T302 139T306 156Q306 164 303 170T293 182T271 193T234 202Q180 213
145 227T90 262T61 309T52 376Q52 409 63 437T93 487T139 523T198 545L197 689H323L322 547Q341 546 359 543T395 536T428 525T461 512L421 392Q403 400 383 405T342 414T303 420T268 422Q254 422 245 420T229 414T219 404T216 389Q216 380 218 374T226 362T243
352T274 343Q333 331 371 316T430 280T459 233T468 171Q468 141 459 114T432 65T386 25T322 -2L323 -139H197Z" />
<glyph unicode="%" glyph-name="percent" horiz-adv-x="519" d="M21 480Q21 510 28 535T52 579T92 608T148 618Q178 618 200 610T237 586T259 546T266 489Q266 457 258 432T234 388T193 359T138 349Q108 349 86 357T50 381T28 422T21 480ZM111 485Q111 462 113
447T119 425T129 415T143 412Q151 412 157 415T167 427T174 449T176 486Q176 507 174 520T168 540T159 550T145 553Q137 553 131 550T121 539T114 518T111 485ZM512 537L114 0H8L406 537H512ZM253 53Q253 83 260 108T284 152T324 181T379 191Q409 191 431 183T468
159T490 119T497 61Q497 30 489 5T465 -39T424 -68T369 -78Q339 -78 317 -70T281 -46T260 -5T253 53ZM342 58Q342 35 344 20T350 -2T360 -12T374 -15Q382 -15 388 -12T398 0T405 22T407 59Q407 79 405 92T399 113T390 123T376 126Q368 126 362 123T352 112T345
91T342 58Z" />
<glyph unicode="&amp;" glyph-name="ampersand" horiz-adv-x="794" d="M774 431L766 324H637Q632 284 623 250T600 187T566 130T517 77L547 33Q552 25 556 21T565 13T575 9T587 8Q595 8 605 9T628 14T655 21T685 30L714 -74Q696 -84 674 -92T629 -105T584 -114T542
-117Q521 -117 505 -114T473 -101T443 -77T411 -37L383 5Q374 2 361 0T332 -5T297 -9T260 -10Q208 -10 167 0T98 31T55 82T40 152Q40 179 46 201T67 247T108 295T175 351Q166 365 160 380T149 411T142 442T140 472Q140 510 153 540T192 591T255 623T337 634Q360
634 381 632T423 625T460 614T494 600L459 490Q445 495 431 499T403 506T374 510T345 512Q331 512 321 509T305 501T297 488T294 471Q294 456 296 444T305 417T324 382T357 329L456 176Q468 190 478 207T494 243T504 282T510 324H436L448 431H774ZM320 112L230
254Q220 241 214 230T204 209T200 191T198 173Q198 158 203 146T217 124T241 111T274 106Q281 106 287 106T299 107T310 109T320 112Z" />
<glyph unicode="&apos;" glyph-name="quotesingle" horiz-adv-x="267" d="M203 710V376L64 367V710H203Z" />
<glyph unicode="(" glyph-name="parenleft" horiz-adv-x="441" d="M400 -104L363 -225Q284 -209 228 -175T136 -84T83 54T65 250Q65 380 84 469T140 617T232 709T365 768L406 649Q350 626 316 601T261 535T231 432T222 270Q222 178 230 117T259 15T312 -54T400 -104Z" />
<glyph unicode=")" glyph-name="parenright" horiz-adv-x="441" d="M41 648L78 769Q158 753 214 719T306 628T359 490T376 294Q376 164 357 75T301 -73T210 -165T77 -224L35 -105Q91 -82 125 -57T180 9T210 112T219 274Q219 366 211 427T183 529T129 598T41 648Z" />
<glyph unicode="*" glyph-name="asterisk" horiz-adv-x="586" d="M539 421L384 405L476 271L349 214L282 354L177 234L70 320L194 430L45 481L104 596L235 526L249 684L392 668L362 510L509 546L539 421Z" />
<glyph unicode="+" glyph-name="plus" horiz-adv-x="519" d="M321 66H197V214H46L52 324H197V472H321V324H472L467 214H321V66Z" />
<glyph unicode="," glyph-name="comma" horiz-adv-x="306" d="M262 7Q262 -31 248 -63T205 -122T135 -167T38 -199L-7 -98Q27 -87 47 -79T78 -61T93 -41T98 -14Q98 -6 96 11T89 50T80 93T70 132L212 158Q223 145 232 127T248 89T258 48T262 7Z" />
<glyph unicode="-" glyph-name="hyphen" horiz-adv-x="395" d="M358 324L352 214H38L44 324H358Z" />
<glyph unicode="." glyph-name="period" horiz-adv-x="320" d="M70 157H250V0H70V157Z" />
<glyph unicode="/" glyph-name="slash" horiz-adv-x="372" d="M374 537L152 0H-2L219 537H374Z" />
<glyph unicode="0" glyph-name="zero" horiz-adv-x="519" d="M485 281Q485 212 471 159T429 68T355 10T247 -10Q188 -10 148 6T83 56T47 141T35 264Q35 329 48 381T90 471T163 529T269 550Q330 550 372 533T438 482T474 399T485 281ZM314 271Q314 322 312 354T303
404T288 429T262 437Q246 437 236 429T219 403T209 352T205 270Q205 219 208 187T217 136T233 110T257 103Q272 103 282 110T300 135T310 186T314 271Z" />
<glyph unicode="1" glyph-name="one" horiz-adv-x="519" d="M63 530L367 542V119L468 113L460 0H55L64 113L202 119V415H66L63 530Z" />
<glyph unicode="2" glyph-name="two" horiz-adv-x="519" d="M300 346Q300 360 295 372T279 394T254 408T221 413Q206 413 191 411T161 404T130 393T98 377L37 481Q64 499 91 512T145 534T201 546T261 550Q314 550 355 537T423 500T463 443T477 368Q477 339 465
310T428 251T362 188T264 120H489L477 0H41L30 103L216 234Q240 251 256 265T282 291T296 317T300 346Z" />
<glyph unicode="3" glyph-name="three" horiz-adv-x="519" d="M404 280Q425 270 439 258T463 230T476 197T481 160Q481 124 466 94T419 40T334 3T209 -10Q187 -10 162 -8T113 0T66 13T28 30L53 145Q72 137 93 131T137 121T180 115T218 113Q239 113 254 116T279
126T292 142T297 162Q297 177 289 187T264 203T219 211T150 214L146 319Q164 319 182 319T216 318T248 316T275 314Q279 320 282 326T288 340T292 356T294 372Q294 386 290 395T277 411T257 420T231 423Q216 423 200 420T166 411T134 398T104 381L46 482Q73 500
99 513T152 534T207 546T266 550Q316 550 354 540T417 511T454 466T467 408Q467 393 464 378T453 347T433 314T404 280Z" />
<glyph unicode="4" glyph-name="four" horiz-adv-x="519" d="M489 98H439V0H274V98H27L9 214L274 537H439V215H499L489 98ZM274 379L140 212H274V379Z" />
<glyph unicode="5" glyph-name="five" horiz-adv-x="519" d="M201 412V339Q209 339 214 339T224 340T230 340T237 340Q303 340 349 330T423 299T464 250T477 181Q477 138 460 103T409 43T325 4T209 -10Q187 -10 162 -8T113 0T66 13T28 30L53 145Q72 137 93 131T137
121T180 115T218 113Q241 113 258 117T287 128T304 146T310 169Q310 181 306 190T290 206T259 217T210 221Q197 221 178 221T138 219T100 218T74 216V537H465L455 412H201Z" />
<glyph unicode="6" glyph-name="six" horiz-adv-x="519" d="M304 550Q326 550 349 548T397 541T446 528T494 509L465 396Q440 404 419 410T379 419T343 425T309 427Q284 427 267 422T237 405T219 375T209 328Q219 331 230 333T253 336T274 338T294 339Q344 339
380 327T440 293T474 240T485 171Q485 135 471 103T429 45T359 5T262 -10Q202 -10 158 6T87 55T46 135T32 244Q32 318 47 374T95 470T180 529T304 550ZM270 106Q286 106 298 111T317 124T328 143T332 165Q332 182 328 194T314 215T292 228T262 232Q256 232 250
232T236 231T222 229T208 225Q208 196 211 175T221 138T241 114T270 106Z" />
<glyph unicode="7" glyph-name="seven" horiz-adv-x="519" d="M487 432L271 0H98L317 412H42L53 537H481L487 432Z" />
<glyph unicode="8" glyph-name="eight" horiz-adv-x="519" d="M31 145Q31 164 36 182T53 217T82 252T124 288Q109 299 98 310T79 335T68 363T64 398Q64 430 77 457T117 506T185 538T281 550Q327 550 361 541T419 513T453 470T465 412Q465 396 461 382T449 352T429
322T401 291Q428 273 445 257T472 226T486 194T490 157Q490 120 474 90T426 37T348 2T245 -10Q194 -10 154 0T87 31T45 80T31 145ZM231 403Q231 394 235 387T248 372T272 356T312 335Q318 345 322 353T330 368T334 382T336 396Q336 406 332 414T320 429T302 438T280
441Q268 441 259 438T243 430T234 418T231 403ZM183 153Q183 140 187 130T201 111T224 99T253 95Q268 95 280 98T300 107T312 123T316 143Q316 152 312 160T296 177T265 199T212 228Q205 219 200 210T191 191T185 173T183 153Z" />
<glyph unicode="9" glyph-name="nine" horiz-adv-x="519" d="M249 433Q233 433 221 428T202 414T192 394T188 371Q188 354 192 342T205 321T227 308T257 303Q263 303 270 303T284 305T298 307T312 310Q312 339 309 361T298 400T279 424T249 433ZM215 -10Q193 -10
170 -8T122 -1T74 11T25 30L54 144Q78 136 99 130T140 121T177 115T210 113Q235 113 252 117T282 133T300 162T310 208Q300 205 289 203T266 200T243 198T223 197Q173 197 137 209T79 245T47 299T36 368Q36 404 49 436T91 494T161 535T257 550Q317 550 360 533T432
482T473 401T487 291Q487 217 472 162T424 68T339 10T215 -10Z" />
<glyph unicode=":" glyph-name="colon" horiz-adv-x="315" d="M70 492H250V335H70V492ZM70 199H250V42H70V199Z" />
<glyph unicode=";" glyph-name="semicolon" horiz-adv-x="315" d="M70 492H250V335H70V492ZM262 7Q262 -31 248 -63T205 -122T135 -167T38 -199L-7 -98Q27 -87 47 -79T78 -61T93 -41T98 -14Q98 -6 96 11T89 50T80 93T70 132L212 158Q223 145 232 127T248 89T258
48T262 7Z" />
<glyph unicode="&lt;" glyph-name="less" horiz-adv-x="519" d="M453 373L234 269L457 161L444 32L53 218L64 308L465 500L453 373Z" />
<glyph unicode="=" glyph-name="equal" horiz-adv-x="519" d="M472 424L467 314H46L52 424H472ZM472 222L467 112H46L52 222H472Z" />
<glyph unicode="&gt;" glyph-name="greater" horiz-adv-x="519" d="M66 159L285 263L62 371L75 500L466 314L455 224L54 32L66 159Z" />
<glyph unicode="?" glyph-name="question" horiz-adv-x="512" d="M460 429Q460 395 450 367T418 314T361 272T275 242L148 212L121 323L233 351Q249 355 260 360T279 372T290 390T294 413Q294 424 290 433T275 449T249 461T209 465Q199 465 188 465T165 463T140
459T113 452L91 583Q104 587 120 590T154 596T190 600T224 602Q280 602 324 590T399 554T444 500T460 429ZM131 157H312V0H131V157Z" />
<glyph unicode="@" glyph-name="at" horiz-adv-x="994" d="M529 56Q502 33 486 21T456 2T432 -7T405 -10Q374 -10 351 1T312 34T288 89T280 166Q280 244 297 302T346 399T423 456T526 475Q543 475 565 473T612 467T661 458T706 447L674 105Q713 113 744 135T796
192T827 269T838 362Q838 418 819 462T761 538T665 585T533 602Q454 602 387 573T269 488T192 356T164 185Q164 105 178 50T217 -37T276 -83T352 -97Q365 -97 381 -95T416 -90T454 -81T492 -70L523 -160Q507 -170 486 -179T442 -195T394 -205T346 -209Q274 -209
218 -191T121 -129T58 -9T35 179Q35 295 73 393T182 561T347 670T550 708Q654 708 731 685T859 617T934 509T959 367Q959 291 935 223T864 102T752 20T607 -10Q585 -10 570 -6T546 8T533 29T529 56ZM530 142L550 347Q544 348 537 349T524 351T512 352T502 353Q484
353 471 343T449 312T436 262T432 193Q432 175 434 162T442 141T456 128T477 123Q482 123 486 124T497 127T511 132T530 142Z" />
<glyph unicode="A" glyph-name="A" horiz-adv-x="650" d="M306 454L247 269H380L323 454Q321 461 320 468T317 482T316 495T315 506Q315 501 315 495T313 482T310 468T306 454ZM660 0H467L417 157H211L159 0H-13L237 702H408L660 0Z" />
<glyph unicode="B" glyph-name="B" horiz-adv-x="599" d="M576 223Q576 171 556 130T498 59T404 15T281 0H47V702H304Q365 702 409 690T482 655T523 599T537 523Q537 505 532 486T519 449T499 413T474 381Q500 370 519 354T551 317T570 274T576 223ZM368 499Q368
518 363 532T346 556T316 570T273 575H222V419H348Q354 431 357 441T363 460T367 479T368 499ZM398 215Q398 233 392 247T375 271T348 286T310 292H222V127H293Q320 127 340 132T372 148T391 175T398 215Z" />
<glyph unicode="C" glyph-name="C" horiz-adv-x="618" d="M409 431L404 562Q399 562 396 562T391 563T386 563T379 563Q342 563 313 552T264 517T232 452T221 353Q221 290 233 247T267 180T314 145T372 135Q394 135 417 138T462 146T507 160T550 178L588 45Q558
31 531 22T474 6T409 -4T332 -8Q258 -8 203 13T110 76T53 184T34 339Q34 426 56 494T123 611T230 683T373 708Q407 708 434 706T485 699T530 687T572 671L558 439L409 431Z" />
<glyph unicode="D" glyph-name="D" horiz-adv-x="675" d="M641 371Q641 275 618 204T549 88T439 22T291 0H51V702H310Q396 702 458 684T560 626T621 524T641 371ZM289 570H226V132H291Q335 132 366 144T419 181T450 248T461 350Q461 412 451 454T421 521T368 558T289
570Z" />
<glyph unicode="E" glyph-name="E" horiz-adv-x="553" d="M523 0H53V702H519L507 570H228V422H483V290H228V132H510L523 0Z" />
<glyph unicode="F" glyph-name="F" horiz-adv-x="524" d="M499 702L487 570H228V408H466L454 276H228V0H53V702H499Z" />
<glyph unicode="G" glyph-name="G" horiz-adv-x="668" d="M618 61Q593 45 562 33T494 11T418 -3T339 -8Q265 -8 209 11T113 72T54 178T34 335Q34 425 57 494T123 611T229 683T371 708Q410 708 438 706T491 700T540 689T594 669L551 533Q531 541 509 547T465 557T422
563T379 565Q341 565 312 553T261 516T229 451T217 354Q217 292 228 248T261 177T312 138T380 126Q391 126 400 126T416 128T431 131T448 135V242H347L358 374H618V61Z" />
<glyph unicode="H" glyph-name="H" horiz-adv-x="706" d="M653 0H478V285H228V0H53V702H228V417H478V702H653V0Z" />
<glyph unicode="I" glyph-name="I" horiz-adv-x="424" d="M390 702V584L299 577V120L394 114V0H30V114L124 120V577L35 584V702H390Z" />
<glyph unicode="J" glyph-name="J" horiz-adv-x="404" d="M-24 -165L5 -42Q15 -45 27 -47T51 -50T73 -52T90 -53Q106 -53 117 -50T134 -41T144 -24T147 1V577L39 584V702H394V584L322 578V32Q322 -18 308 -58T265 -127T197 -171T106 -186Q91 -186 74 -185T40 -181T6
-174T-24 -165Z" />
<glyph unicode="K" glyph-name="K" horiz-adv-x="639" d="M657 0H441L264 284L228 237V0H53V702H228V424L438 702H629L392 399L657 0Z" />
<glyph unicode="L" glyph-name="L" horiz-adv-x="503" d="M490 0H53V702H228V132H479L490 0Z" />
<glyph unicode="M" glyph-name="M" horiz-adv-x="861" d="M812 0H641L636 394Q634 387 633 382T630 371T626 359T620 346L476 18H365L222 335Q218 343 216 349T211 361T207 372T204 384L199 0H50L61 702H224L433 249L643 702H802L812 0Z" />
<glyph unicode="N" glyph-name="N" horiz-adv-x="720" d="M667 0H516L243 368Q228 388 225 392T219 401T215 409V0H53V702H202L478 314Q482 308 488 300T497 287T502 280T505 274V702H667V0Z" />
<glyph unicode="O" glyph-name="O" horiz-adv-x="707" d="M673 362Q673 281 652 214T589 96T483 19T336 -8Q260 -8 204 11T111 70T54 177T34 339Q34 427 56 496T120 612T225 683T368 708Q443 708 499 689T594 629T653 522T673 362ZM486 356Q486 412 479 452T456
518T417 558T360 571Q327 571 302 559T258 520T231 452T222 354Q222 292 230 249T253 180T292 142T348 130Q385 130 411 145T454 188T478 259T486 356Z" />
<glyph unicode="P" glyph-name="P" horiz-adv-x="568" d="M549 470Q549 410 529 360T473 275T388 220T282 200H228V0H53V702H302Q365 702 412 685T489 637T534 564T549 470ZM378 458Q378 480 374 499T359 535T329 560T282 570H228V332H281Q307 332 326 342T356
369T373 409T378 458Z" />
<glyph unicode="Q" glyph-name="Q" horiz-adv-x="707" d="M673 362Q673 305 663 255T631 161T579 85T506 30Q517 7 526 -6T544 -27T563 -37T589 -40Q596 -40 606 -39T629 -37T655 -33T681 -28L697 -156Q680 -162 663 -166T629 -173T597 -177T568 -179Q527 -179
499 -173T449 -149T407 -98T371 -8H336Q260 -8 204 11T111 70T54 177T34 339Q34 427 56 496T120 612T225 683T368 708Q443 708 499 689T594 629T653 522T673 362ZM486 356Q486 412 479 452T456 518T417 558T360 571Q327 571 302 559T258 520T231 452T222 354Q222
292 230 249T253 180T292 142T348 130Q385 130 411 145T454 188T478 259T486 356Z" />
<glyph unicode="R" glyph-name="R" horiz-adv-x="604" d="M383 485Q383 505 378 520T362 547T331 564T283 570H228V373H343Q354 390 361 404T374 431T381 457T383 485ZM602 0H407L298 241H228V0H53V702H297Q363 702 411 690T491 652T538 590T554 503Q554 475 548
449T528 398T495 347T448 296L602 0Z" />
<glyph unicode="S" glyph-name="S" horiz-adv-x="565" d="M537 225Q537 177 520 135T467 61T380 10T260 -9Q226 -9 196 -6T138 2T81 17T20 40L64 185Q87 175 113 166T166 151T218 142T266 138Q288 138 305 142T335 153T353 172T360 197Q360 213 356 223T340 241T310
255T261 267Q203 278 164 293T98 331T58 392T45 483Q45 532 62 574T111 648T189 696T290 713Q325 713 357 710T420 702T476 688T524 670L484 536Q465 543 441 549T393 559T347 566T307 569Q287 569 272 566T246 554T230 535T224 507Q224 492 227 482T239 464T265
450T312 437Q382 422 426 404T494 360T527 303T537 225Z" />
<glyph unicode="T" glyph-name="T" d="M568 702L557 570H374V0H199V570H6L17 702H568Z" />
<glyph unicode="U" glyph-name="U" horiz-adv-x="673" d="M625 275Q625 211 606 159T549 70T455 12T326 -8Q253 -8 200 8T114 59T64 146T47 273V702H222V266Q222 229 228 204T248 162T284 139T337 131Q371 131 394 139T431 165T451 208T458 270V702H625V275Z" />
<glyph unicode="V" glyph-name="V" horiz-adv-x="625" d="M327 270L471 702H637L382 0H214L-12 702H188L310 270Q312 263 313 256T315 243T316 230T317 219Q317 224 317 230T319 243T323 257T327 270Z" />
<glyph unicode="W" glyph-name="W" horiz-adv-x="932" d="M448 422L349 0H163L17 702H200L270 258Q271 251 272 244T273 231T274 218T275 207Q275 212 275 217T277 230T280 243T284 258L390 684H552L655 258Q657 251 658 244T660 231T661 218T662 207Q662 212
662 217T664 229T670 258L760 702H914L751 0H569L462 422Q460 429 459 435T457 448T456 461T455 472Q455 467 455 462T453 450T451 436T448 422Z" />
<glyph unicode="X" glyph-name="X" horiz-adv-x="598" d="M607 702L405 366L611 0H407L294 214L175 0H-13L195 345L-2 702H196L306 493L426 702H607Z" />
<glyph unicode="Y" glyph-name="Y" horiz-adv-x="616" d="M630 702L386 297V0H211V297L-14 702H188L316 465L459 702H630Z" />
<glyph unicode="Z" glyph-name="Z" horiz-adv-x="592" d="M554 702L561 595L245 132H562L554 0H51L40 129L336 570H55L64 702H554Z" />
<glyph unicode="[" glyph-name="bracketleft" horiz-adv-x="440" d="M399 753L389 633H227V-85H399L389 -205H77V753H399Z" />
<glyph unicode="\" glyph-name="backslash" horiz-adv-x="373" d="M375 0H219L-2 537H153L375 0Z" />
<glyph unicode="]" glyph-name="bracketright" horiz-adv-x="440" d="M41 -207L51 -87H213V632H41L51 752H363V-207H41Z" />
<glyph unicode="^" glyph-name="asciicircum" horiz-adv-x="523" d="M195 798L339 801L490 387H316L268 540Q264 553 261 568T255 595T250 627Q248 608 247 596T242 568T234 540L182 387H34L195 798Z" />
<glyph unicode="_" glyph-name="underscore" horiz-adv-x="420" d="M393 110L387 0H28L34 110H393Z" />
<glyph unicode="`" glyph-name="grave" horiz-adv-x="367" d="M317 619L209 601L66 792L189 819L317 619Z" />
<glyph unicode="a" glyph-name="a" horiz-adv-x="591" d="M277 361L237 208H331L293 361Q291 368 290 374T288 386T287 397T286 408Q286 403 286 398T284 387T281 375T277 361ZM579 0H387L360 98H212L185 0H12L199 537H389L579 0Z" />
<glyph unicode="b" glyph-name="b" horiz-adv-x="563" d="M302 537Q353 537 390 529T451 503T486 459T498 398Q498 386 495 373T485 346T469 320T446 296Q468 286 484 273T510 244T526 211T531 173Q531 132 514 100T464 46T385 12T281 0H65V537H302ZM230 321H330Q334
328 337 334T342 347T345 359T346 371Q346 386 343 398T331 418T309 432T275 437H230V321ZM287 100Q309 100 324 105T348 118T361 139T365 167Q365 182 361 192T347 209T323 218T290 221H230V100H287Z" />
<glyph unicode="c" glyph-name="c" horiz-adv-x="550" d="M492 524L481 319L343 313L339 426H327Q297 426 275 418T238 391T216 344T208 274Q208 230 215 200T237 152T273 126T325 118Q340 118 360 121T401 129T442 140T474 153L509 39Q487 28 462 19T408 4T352
-6T294 -10Q232 -10 185 6T104 57T54 142T37 263Q37 330 56 383T111 474T199 530T316 550Q337 550 360 548T407 543T452 535T492 524Z" />
<glyph unicode="d" glyph-name="d" horiz-adv-x="609" d="M303 537Q368 537 417 526T501 487T556 411T575 291Q575 220 553 165T490 74T391 19T261 0H65V537H303ZM266 120Q303 120 329 129T371 156T396 204T404 277Q404 319 397 346T374 388T333 410T269 417H230V120H266Z"
/>
<glyph unicode="e" glyph-name="e" horiz-adv-x="516" d="M459 422H230V326H434V211H230V115H461L473 0H65V537H471L459 422Z" />
<glyph unicode="f" glyph-name="f" horiz-adv-x="476" d="M424 297L412 177H230V0H65V537H453L441 417H230V297H424Z" />
<glyph unicode="g" glyph-name="g" horiz-adv-x="585" d="M519 516L480 403Q458 410 438 414T400 422T365 426T330 427Q299 427 276 419T236 393T212 346T204 274Q204 231 212 200T235 149T274 119T328 109Q335 109 341 109T354 110T366 112T380 114V187H293L303
297H527V54Q503 38 477 27T423 7T363 -6T297 -10Q233 -10 184 6T103 57T54 142T37 263Q37 331 56 384T111 475T202 531T325 550Q355 550 380 548T427 542T472 532T519 516Z" />
<glyph unicode="h" glyph-name="h" horiz-adv-x="650" d="M230 333H420V537H585V0H420V213H230V0H65V537H230V333Z" />
<glyph unicode="i" glyph-name="i" horiz-adv-x="399" d="M359 537V427L281 422V111L359 105V0H40V105L116 111V422L44 427V537H359Z" />
<glyph unicode="j" glyph-name="j" horiz-adv-x="349" d="M106 422L26 427V537H332V427L271 422V14Q271 -26 258 -58T220 -113T158 -148T74 -160Q59 -160 44 -159T15 -155T-12 -148T-35 -139L-11 -28Q-1 -30 10 -32T32 -35T54 -38T74 -39Q83 -39 89 -38T98 -32T104
-22T106 -7V422Z" />
<glyph unicode="k" glyph-name="k" horiz-adv-x="588" d="M230 0H65V537H230V339L393 537H576L373 302L581 0H384L249 208L230 186V0Z" />
<glyph unicode="l" glyph-name="l" horiz-adv-x="437" d="M230 120H406L417 0H65V537H230V120Z" />
<glyph unicode="m" glyph-name="m" horiz-adv-x="758" d="M71 537H229L380 201L537 537H690L697 0H542L539 289Q539 284 538 279T534 267T529 254T523 240L420 13H313L215 247Q212 254 210 260T206 273T203 284T201 294L195 0H60L71 537Z" />
<glyph unicode="n" glyph-name="n" horiz-adv-x="640" d="M209 0H65V537H209L404 281Q410 274 414 267T422 254T427 242T431 232V537H575V0H427L234 250Q227 259 223 265T216 277T212 286T209 295V0Z" />
<glyph unicode="o" glyph-name="o" horiz-adv-x="625" d="M326 550Q392 550 441 534T523 485T573 400T590 280Q590 220 572 168T518 76T426 13T299 -10Q234 -10 185 6T103 57T54 142T37 264Q37 330 57 383T116 473T207 530T326 550ZM313 114Q341 114 360 124T392
154T409 205T415 277Q415 317 410 345T393 391T362 417T316 426Q290 426 271 418T239 391T220 345T213 275Q213 231 219 200T237 150T267 123T313 114Z" />
<glyph unicode="p" glyph-name="p" horiz-adv-x="538" d="M65 0V537H295Q349 537 388 524T453 487T491 430T503 354Q503 308 487 270T440 205T368 164T276 149H230V0H65ZM269 264Q288 264 301 269T324 284T337 309T342 346Q342 364 339 378T327 401T306 416T273
422H230V264H269Z" />
<glyph unicode="q" glyph-name="q" horiz-adv-x="625" d="M326 550Q392 550 441 534T523 485T573 400T590 280Q590 241 583 205T560 137T521 79T467 32Q479 5 487 -10T504 -35T524 -49T550 -53Q561 -53 576 -52T607 -48T639 -43T666 -38L686 -151Q670 -157 650
-162T607 -172T562 -178T521 -180Q483 -180 454 -170T404 -138T365 -86T333 -9Q328 -9 324 -9T315 -10T307 -10T299 -10Q234 -10 185 6T103 57T54 142T37 264Q37 330 57 383T116 473T207 530T326 550ZM313 114Q341 114 360 124T390 154T407 205T413 277Q413 317
408 345T392 391T362 417T316 426Q290 426 272 418T241 391T222 345T215 275Q215 230 220 200T237 150T267 123T313 114Z" />
<glyph unicode="r" glyph-name="r" horiz-adv-x="568" d="M349 354Q349 369 345 381T331 403T309 417T276 422H230V282H328Q335 295 339 304T345 321T348 337T349 354ZM555 0H367L275 167H230V0H65V537H295Q350 537 390 527T457 497T497 445T511 371Q511 352 506
333T491 295T464 255T425 212L555 0Z" />
<glyph unicode="s" glyph-name="s" horiz-adv-x="503" d="M274 342Q330 330 367 315T426 279T457 232T467 171Q467 133 452 101T408 43T335 4T235 -10Q208 -10 182 -7T130 2T79 16T30 36L70 154Q90 145 112 138T157 126T201 117T241 114Q258 114 271 117T292 125T304
137T308 154Q308 162 305 168T294 181T271 192T234 201Q181 211 146 226T91 262T62 311T53 376Q53 417 69 450T114 505T180 538T260 550Q291 550 317 548T367 540T413 528T459 510L421 396Q403 404 383 409T342 419T302 425T268 427Q255 427 245 425T228 417T218
405T214 389Q214 379 216 373T224 362T242 351T274 342Z" />
<glyph unicode="t" glyph-name="t" horiz-adv-x="511" d="M174 0V417H15L26 537H498L489 417H339V0H174Z" />
<glyph unicode="u" glyph-name="u" horiz-adv-x="627" d="M565 537V221Q565 172 548 130T496 57T413 8T303 -10Q236 -10 190 2T116 42T74 111T61 215V537H226V223Q226 194 230 174T244 140T270 120T313 113Q337 113 354 120T381 140T395 174T400 221V537H565Z" />
<glyph unicode="v" glyph-name="v" horiz-adv-x="552" d="M189 537L280 222Q282 215 283 209T285 197T286 186T287 175Q287 180 287 185T289 196T292 208T296 222L387 537H556L355 0H183L-4 537H189Z" />
<glyph unicode="w" glyph-name="w" horiz-adv-x="812" d="M489 524L575 230Q577 223 578 217T580 205T581 194T582 183Q582 188 582 193T584 204T586 216T590 230L666 537H815L654 0H488L406 275Q404 282 403 288T401 300T400 311T399 322Q399 317 399 312T397
301T395 289T391 275L310 0H155L-4 537H176L247 230Q249 221 250 216T252 204T253 193T254 183Q254 188 254 193T256 204T258 216T262 230L349 524H489Z" />
<glyph unicode="x" glyph-name="x" d="M184 266L17 537H218L299 391L386 537H556L387 283L567 0H359L272 152L185 0H7L184 266Z" />
<glyph unicode="y" glyph-name="y" horiz-adv-x="566" d="M197 216L-8 537H185L293 353L401 537H567L362 221V0H197V216Z" />
<glyph unicode="z" glyph-name="z" horiz-adv-x="523" d="M47 0L35 106L264 417H40L50 537H479L486 446L241 120H478L470 0H47Z" />
<glyph unicode="{" glyph-name="braceleft" horiz-adv-x="440" d="M411 -109L385 -224Q313 -221 260 -207T172 -166T120 -103T103 -18Q103 3 105 21T110 62T115 98T117 127Q117 144 112 156T94 178T56 194T-8 205L0 321Q37 324 60 329T96 341T112 359T117 384Q117
402 116 419T111 465T105 517T103 562Q103 610 119 647T171 711T260 754T389 775L417 661Q366 652 335 643T287 622T264 596T257 559Q257 542 258 524T263 477T268 427T270 386Q270 367 265 350T250 320T226 296T194 277Q216 269 230 257T253 228T265 192T269 150Q269
130 268 112T264 69T260 30T258 0Q258 -24 266 -41T291 -71T338 -92T411 -109Z" />
<glyph unicode="|" glyph-name="bar" horiz-adv-x="409" d="M266 -203L144 -210V765L266 772V-203Z" />
<glyph unicode="}" glyph-name="braceright" horiz-adv-x="440" d="M30 657L55 773Q127 770 180 756T268 715T320 652T337 566Q337 545 335 528T330 487T325 451T323 421Q323 404 328 392T346 371T384 354T448 343L440 228Q403 225 380 220T344 207T328 189T323
165Q323 147 324 130T329 83T335 32T337 -13Q337 -61 321 -98T270 -162T181 -205T51 -227L24 -112Q75 -103 106 -94T153 -74T176 -48T183 -11Q183 6 182 24T177 72T172 122T170 163Q170 182 175 198T190 228T214 252T247 271Q225 279 210 292T187 321T175 357T171
399Q171 419 172 437T176 480T180 519T182 549Q182 573 174 590T149 619T103 640T30 657Z" />
<glyph unicode="~" glyph-name="asciitilde" horiz-adv-x="519" d="M485 364Q479 316 466 283T434 229T393 200T343 191Q328 191 310 194T265 204T221 214T192 217Q183 217 177 215T166 207T156 189T148 159L34 175Q40 221 54 254T89 308T133 337T186 347Q203
347 221 344T264 333T303 323T331 320Q339 320 345 322T356 331T365 349T372 380L485 364Z" />
</font>
</defs>
</svg>
